<svg enable-background="new 0 0 100 100" viewBox="0 0 100 100" xmlns="http://www.w3.org/2000/svg" xmlns:xlink="http://www.w3.org/1999/xlink"><linearGradient id="a" gradientUnits="userSpaceOnUse" x1="43.119" x2="17.235" y1="53.742" y2="98.574"><stop offset="0" stop-color="#0052cc"/><stop offset=".92" stop-color="#2684ff"/></linearGradient><path d="m29.6 46.2c-1-1.2-2.7-1.5-4-.5-.4.3-.6.6-.8 1l-24.5 49c-.7 1.4-.1 3.2 1.3 3.9.4.3.9.4 1.3.4h34.2c1.1 0 2.1-.6 2.6-1.6 7.4-15.2 2.9-38.4-10.1-52.2z" fill="url(#a)"/><path d="m47.7 1.6c-12.5 19.1-13.9 43.4-3.8 63.8l16.5 32.9c.5 1 1.5 1.6 2.6 1.6h34.1c1.6 0 2.9-1.3 2.9-2.9 0-.5-.1-.9-.3-1.3l-47-94.1c-.7-1.4-2.3-2-3.7-1.3-.6.2-1.1.7-1.3 1.3z" fill="#2684ff"/></svg>