<svg enable-background="new 0 0 56 56" viewBox="0 0 56 56" xmlns="http://www.w3.org/2000/svg"><g clip-rule="evenodd" fill-rule="evenodd"><path d="m28 .5c15.2 0 27.5 12.3 27.5 27.5s-12.3 27.5-27.5 27.5-27.5-12.3-27.5-27.5 12.3-27.5 27.5-27.5z" fill="#4a4a4d" stroke="#fff" stroke-miterlimit="10"/><g fill="#fff"><path d="m42.6 40.1c-1 3.1-2.5 5.4-4.6 7.1s-4.9 2.6-8.4 2.9l-.7-4.6c2.3-.3 4-.8 5.1-1.6.4-.3 1.2-1.2 1.2-1.2l-8.3-26.6h6.9l4.8 19.9 5.1-19.9h6.7z"/><path d="m18.5 15.2c1.6 0 3.1.2 4.3.7 1.3.5 2.5 1.2 3.7 2.2l-2.8 3.8c-.8-.6-1.6-1-2.3-1.3s-1.6-.4-2.4-.4c-3.4 0-5.1 2.6-5.1 7.9 0 2.7.4 4.6 1.3 5.7.9 1.2 2.1 1.7 3.8 1.7.8 0 1.6-.1 2.3-.4s1.5-.7 2.5-1.3l2.8 4c-2.3 1.9-4.9 2.8-7.9 2.8-2.4 0-4.4-.5-6.2-1.5-1.7-1-3.1-2.5-4-4.4s-1.4-4.1-1.4-6.7c0-2.5.5-4.8 1.4-6.7.9-2 2.3-3.5 4-4.6 1.7-.9 3.7-1.5 6-1.5z"/></g></g></svg>