<svg enable-background="new 0 0 200 200" viewBox="0 0 200 200" xmlns="http://www.w3.org/2000/svg"><path d="m199.2 112.7c7-54.8-31.7-104.9-86.4-111.9s-104.9 31.7-112 86.5 31.7 104.9 86.4 111.9c54.9 7 105-31.7 112-86.5z" fill="#ff6c37"/><path d="m136.1 64.3-42.2 42.2-11.9-12c41.5-41.5 45.6-37.8 54.1-30.2z" fill="#fff"/><path d="m93.9 107.4c-.3 0-.5-.1-.7-.3l-12-12c-.4-.4-.4-1 0-1.4 42.2-42.2 46.6-38.2 55.5-30.3.2.2.3.4.3.7s-.1.5-.3.7l-42.1 42.2c-.2.3-.4.4-.7.4zm-10.5-13 10.5 10.6 40.7-40.7c-7.4-6.5-12.4-8.6-51.2 30.1z" fill="#ff6c37"/><path d="m106 118.5-11.5-11.5 42.2-42.2c11.3 11.4-5.5 29.9-30.7 53.7z" fill="#fff"/><path d="m106 119.5c-.3 0-.5-.1-.7-.3l-11.5-11.5c-.2-.2-.3-.4-.3-.7s.1-.5.3-.7l42.2-42.2c.4-.4 1-.4 1.4 0 2.6 2.4 4 5.8 3.9 9.3-.2 11.1-12.8 25.2-34.6 45.8-.2.2-.4.3-.7.3zm-10.1-12.5c6.4 6.5 9.1 9.1 10.1 10.1 16.8-16 33.1-32.4 33.2-43.7.1-2.6-.9-5.2-2.6-7.2z" fill="#ff6c37"/><path d="m82.3 94.8 8.5 8.5c.2.2.2.4 0 .6-.1.1-.1.1-.2.1l-17.6 3.8c-.9.2-1.8-.4-2-1.3-.1-.6 0-1.1.4-1.5l10.2-10.2c.3-.1.5-.1.7 0z" fill="#fff"/><path d="m72.6 108.8c-1.5 0-2.6-1.2-2.6-2.7 0-.7.3-1.4.8-1.9l10.2-10.1c.6-.5 1.4-.5 2 0l8.5 8.5c.6.5.6 1.4 0 2-.2.2-.4.3-.7.4l-17.6 3.8c-.2 0-.4 0-.6 0zm9.4-12.9-9.8 9.8c-.2.2-.3.5-.1.8.1.3.4.4.7.3l16.5-3.6z" fill="#ff6c37"/><path d="m158.4 40.9c-6.4-6.2-16.7-6-22.9.5s-6 16.7.5 22.9c5.3 5.1 13.3 6 19.6 2.2l-11.3-11.3z" fill="#fff"/><path d="m147.2 69.7c-9.5 0-17.2-7.7-17.2-17.2s7.7-17.2 17.2-17.2c4.4 0 8.7 1.7 11.9 4.8.2.2.3.4.3.7s-.1.5-.3.7l-13.4 13.5 10.6 10.6c.2.2.3.5.3.8s-.2.6-.5.7c-2.6 1.8-5.7 2.6-8.9 2.6zm0-32.3c-8.4 0-15.2 6.8-15.1 15.2 0 8.4 6.8 15.2 15.2 15.1 2.3 0 4.6-.5 6.7-1.6l-10.4-10.4c-.2-.2-.3-.4-.3-.7s.1-.5.3-.7l13.4-13.4c-2.8-2.3-6.2-3.5-9.8-3.5z" fill="#ff6c37"/><path d="m158.7 41.1-.2-.2-14.2 14.2 11.3 11.3c1.1-.7 2.2-1.5 3.1-2.4 6.3-6.3 6.3-16.6 0-22.9z" fill="#fff"/><path d="m155.6 67.4c-.3 0-.5-.1-.7-.3l-11.3-11.3c-.2-.2-.3-.4-.3-.7s.1-.5.3-.7l14.2-14.2c.4-.4 1-.4 1.4 0l.3.2c6.7 6.7 6.7 17.5.1 24.3-1 1-2.1 1.9-3.3 2.6-.4 0-.5.1-.7.1zm-9.9-12.3 10 10.1c.8-.5 1.6-1.2 2.2-1.8 5.7-5.7 6-15 .5-21z" fill="#ff6c37"/><path d="m137.8 66c-2.4-2.4-6.3-2.4-8.7 0l-37.7 37.7 6.3 6.3 39.9-35c2.5-2.3 2.8-6.1.5-8.7-.1-.1-.2-.2-.3-.3z" fill="#fff"/><path d="m97.7 111c-.3 0-.5-.1-.7-.3l-6.3-6.3c-.4-.4-.4-1 0-1.4l37.7-37.7c2.8-2.8 7.3-2.8 10.1 0s2.8 7.3 0 10.1c-.1.1-.2.2-.3.3l-39.9 35c-.1.2-.4.3-.6.3zm-4.8-7.3 4.9 4.9 39.2-34.4c2.2-1.8 2.4-5.1.6-7.3s-5.1-2.4-7.3-.6c-.1.1-.2.2-.4.3z" fill="#ff6c37"/><path d="m62.5 146.6c-.4.2-.6.6-.5 1l1.7 7.2c.4 1-.2 2.2-1.3 2.5-.8.3-1.7 0-2.2-.6l-10.9-10.9 35.9-35.9 12.4.2 8.4 8.4c-2.1 1.8-14.2 13.4-43.5 28.1z" fill="#fff"/><path d="m61.7 158.3c-.8 0-1.6-.3-2.1-.9l-11-10.9c-.2-.2-.3-.4-.3-.7s.1-.5.3-.7l35.9-35.9c.2-.2.5-.3.7-.3l12.4.2c.3 0 .5.1.7.3l8.4 8.4c.2.2.3.5.3.8s-.1.5-.4.7l-.7.6c-10.6 9.3-25 18.6-42.9 27.5l1.7 7.1c.3 1.3-.3 2.7-1.5 3.4-.5.3-1 .4-1.5.4zm-11-12.5 10.3 10.2c.3.5.9.7 1.4.4s.7-.9.4-1.4l-1.7-7.2c-.2-.9.2-1.7 1-2.1 17.7-8.9 32-18.1 42.5-27.2l-7.4-7.4-11.5-.2z" fill="#ff6c37"/><path d="m40.7 154.4 8.6-8.6 12.8 12.8-20.4-1.4c-.9-.1-1.5-.9-1.4-1.8 0-.4.2-.8.4-1z" fill="#fff"/><path d="m62.1 159.6-20.5-1.4c-1.5-.1-2.5-1.4-2.4-2.9.1-.6.3-1.2.8-1.6l8.6-8.6c.4-.4 1-.4 1.4 0l12.8 12.8c.3.3.4.7.2 1.1-.1.3-.5.6-.9.6zm-12.8-12.4-7.9 7.9c-.2.2-.2.4-.2.7.1.2.3.4.5.4l17.7 1.2z" fill="#ff6c37"/><path d="m81.6 114.5c-.6 0-1-.5-1-1 0-.3.1-.5.3-.7l9.7-9.7c.4-.4 1-.4 1.4 0l6.3 6.3c.3.3.4.6.3 1-.1.3-.4.6-.8.7l-16 3.4c-.1 0-.2 0-.2 0zm9.7-9.3-6.6 6.6 10.9-2.3z" fill="#ff6c37"/><path d="m97.6 110.1-11 2.4c-.8.2-1.6-.3-1.8-1.1-.1-.5 0-1 .4-1.4l6.1-6.1z" fill="#fff"/><g fill="#ff6c37"><path d="m86.3 113.5c-1.4 0-2.5-1.1-2.5-2.5 0-.7.3-1.3.7-1.8l6.1-6.1c.4-.4 1-.4 1.4 0l6.3 6.3c.3.3.4.6.3 1-.1.3-.4.6-.8.7l-11 2.4c-.2 0-.4 0-.5 0zm5-8.3-5.4 5.4c-.2.2-.2.4-.1.6s.3.3.6.3l9.2-2z"/><path d="m158.8 50.7c-.2-.6-.9-.9-1.5-.7s-.9.9-.7 1.5c0 .1.1.2.1.3.6 1.2.4 2.7-.4 3.8-.4.5-.3 1.2.1 1.6.5.4 1.2.3 1.6-.2 1.5-1.8 1.8-4.3.8-6.3z"/></g></svg>