<svg viewBox="0 0 186 200" xmlns="http://www.w3.org/2000/svg"><path d="m92.8 0-92.8 33.3 14 122.8 78.8 43.9 78.9-43.9 14.3-122.8z" fill="#e13439"/><path d="m92.8 0v22.2 101 76.8l78.9-43.9 14.3-122.8z" fill="#b52f32"/><path d="m145.3 117.1v-3.6h12.7a64.9 64.9 0 0 0 -18-43.1l-9.6 9.6-2.5-2.5 9.5-9.6a64.3 64.3 0 0 0 -42.1-17.5v12.6h-3.6v-12.7a65 65 0 0 0 -43.1 17.6l9.6 9.6-2.6 2.5-9.6-9.6a64.8 64.8 0 0 0 -17.9 43.1h12.6v3.6h-12.7v14.8h130v-14.8zm-93.5-2.2a41.3 41.3 0 1 1 82.5 0z" fill="#fff"/></svg>