<?xml version="1.0" encoding="utf-8"?>
<!-- Generator: Adobe Illustrator 24.1.3, SVG Export Plug-In . SVG Version: 6.00 Build 0)  -->
<svg version="1.1" id="Layer_1" xmlns="http://www.w3.org/2000/svg" xmlns:xlink="http://www.w3.org/1999/xlink" x="0px" y="0px"
	 viewBox="0 0 100 100" style="enable-background:new 0 0 100 100;" xml:space="preserve">
<style type="text/css">
	.st0{fill:url(#SVGID_1_);}
	.st1{fill:#2684FF;}
</style>
<linearGradient id="SVGID_1_" gradientUnits="userSpaceOnUse" x1="-224.8958" y1="-5.1883" x2="-227.2599" y2="-1.0936" gradientTransform="matrix(10.9488 0 0 10.9488 2505.4585 110.5481)">
	<stop  offset="0" style="stop-color:#0052CC"/>
	<stop  offset="0.92" style="stop-color:#2684FF"/>
</linearGradient>
<path class="st0" d="M29.6,46.2c-1-1.2-2.7-1.5-4-0.5c-0.4,0.3-0.6,0.6-0.8,1l-24.5,49c-0.7,1.4-0.1,3.2,1.3,3.9
	C2,99.9,2.5,100,2.9,100h34.2c1.1,0,2.1-0.6,2.6-1.6C47.1,83.2,42.6,60,29.6,46.2z"/>
<path class="st1" d="M47.7,1.6C35.2,20.7,33.8,45,43.9,65.4l16.5,32.9c0.5,1,1.5,1.6,2.6,1.6h34.1c1.6,0,2.9-1.3,2.9-2.9
	c0,0,0,0,0,0c0-0.5-0.1-0.9-0.3-1.3L52.7,1.6c-0.7-1.4-2.3-2-3.7-1.3C48.4,0.5,47.9,1,47.7,1.6L47.7,1.6z"/>
</svg>
