<svg enable-background="new 0 0 167.2 100" viewBox="0 0 167.2 100" xmlns="http://www.w3.org/2000/svg"><path d="m47.1 36.3c0 2.1.2 3.7.6 4.9s1 2.6 1.8 4c.3.4.4.9.4 1.3 0 .6-.3 1.1-1.1 1.7l-3.5 2.3c-.5.3-1 .5-1.4.5-.6 0-1.1-.3-1.7-.8-.8-.8-1.4-1.7-2-2.6s-1.1-2-1.7-3.3c-4.3 5.1-9.8 7.7-16.4 7.7-4.7 0-8.4-1.3-11.1-4s-4.1-6.2-4.1-10.7c0-4.7 1.7-8.6 5.1-11.5s7.9-4.3 13.6-4.3c1.9 0 3.8.2 5.9.4 2.1.3 4.2.7 6.4 1.2v-4.1c0-4.2-.9-7.2-2.6-8.9-1.8-1.7-4.8-2.6-9.1-2.6-1.9 0-3.9.2-6 .7s-4.1 1.1-6 1.9c-.9.4-1.6.6-1.9.7-.4.1-.7.2-.9.2-.8 0-1.2-.6-1.2-1.7v-2.5c0-.9.1-1.6.4-1.9s.8-.8 1.6-1.2c1.9-1 4.3-1.8 7-2.5s5.6-1.1 8.7-1.1c6.6 0 11.5 1.5 14.6 4.5s4.6 7.6 4.6 13.7zm-22.6 8.5c1.8 0 3.7-.3 5.7-1s3.8-1.9 5.3-3.6c.9-1.1 1.6-2.2 1.9-3.6s.6-2.9.6-4.8v-2.3c-1.6-.4-3.3-.7-5.1-.9s-3.5-.3-5.2-.3c-3.7 0-6.5.7-8.3 2.2s-2.7 3.6-2.7 6.4c0 2.6.7 4.6 2.1 5.9 1.2 1.3 3.2 2 5.7 2zm44.7 6c-1 0-1.7-.2-2.1-.6-.4-.3-.8-1.1-1.2-2.2l-13.1-43c-.3-1.1-.5-1.8-.5-2.2 0-.9.4-1.4 1.3-1.4h5.5c1.1 0 1.8.2 2.2.6.4.3.8 1.1 1.1 2.2l9.4 36.8 8.7-36.8c.3-1.1.6-1.8 1.1-2.2s1.2-.6 2.2-.6h4.4c1.1 0 1.8.2 2.2.6.4.3.8 1.1 1.1 2.2l8.8 37.3 9.6-37.3c.3-1.1.7-1.8 1.1-2.2.4-.3 1.2-.6 2.2-.6h5.2c.9 0 1.4.4 1.4 1.4 0 .3-.1.6-.1.9-.1.3-.2.8-.4 1.4l-13.4 43c-.3 1.1-.7 1.8-1.2 2.2-.4.3-1.2.6-2.1.6h-4.8c-1.1 0-1.8-.2-2.2-.6s-.8-1.1-1.1-2.2l-8.6-35.9-8.6 35.8c-.3 1.1-.6 1.8-1.1 2.2-.4.4-1.2.6-2.2.6zm71.5 1.5c-2.9 0-5.8-.3-8.6-1s-4.9-1.4-6.4-2.2c-.9-.5-1.5-1.1-1.7-1.6s-.3-1.1-.3-1.6v-2.8c0-1.2.4-1.7 1.3-1.7.3 0 .7.1 1 .2s.8.3 1.4.6c1.9.8 3.9 1.5 6.1 1.9s4.4.7 6.6.7c3.5 0 6.2-.6 8.1-1.8s2.9-3 2.9-5.3c0-1.6-.5-2.8-1.5-3.9s-2.9-2-5.6-2.9l-8.1-2.5c-4.1-1.3-7.1-3.2-8.9-5.7-1.8-2.4-2.8-5.2-2.8-8.1 0-2.3.5-4.4 1.5-6.2s2.3-3.3 4-4.6 3.6-2.2 5.8-2.9c2.2-.7 4.6-.9 7-.9 1.2 0 2.5.1 3.7.2 1.3.2 2.4.4 3.6.6 1.1.3 2.2.6 3.2.9s1.8.7 2.3 1c.8.4 1.3.9 1.7 1.4.3.4.5 1.1.5 1.8v2.6c0 1.2-.4 1.8-1.3 1.8-.4 0-1.2-.2-2.1-.7-3.2-1.4-6.7-2.2-10.7-2.2-3.2 0-5.7.5-7.4 1.6s-2.6 2.7-2.6 4.9c0 1.6.6 2.9 1.7 3.9 1.1 1.1 3.2 2.1 6.1 3.1l7.9 2.5c4 1.3 6.9 3.1 8.6 5.3s2.6 4.9 2.6 7.8c0 2.4-.5 4.6-1.4 6.5-1 1.9-2.3 3.6-4.1 4.9-1.7 1.4-3.8 2.4-6.2 3.1-2.5.9-5.1 1.3-7.9 1.3z" fill="#fff"/><g clip-rule="evenodd" fill="#f90" fill-rule="evenodd"><path d="m151.2 79.3c-18.3 13.5-44.9 20.7-67.8 20.7-32 0-60.9-11.8-82.7-31.5-1.7-1.6-.1-3.7 1.9-2.5 23.6 13.7 52.7 22 82.8 22 20.3 0 42.6-4.2 63.1-12.9 3.1-1.4 5.7 2 2.7 4.2z"/><path d="m158.8 70.6c-2.3-3-15.5-1.4-21.4-.7-1.8.2-2.1-1.3-.4-2.5 10.5-7.3 27.6-5.2 29.6-2.8 2 2.5-.6 19.7-10.3 27.9-1.5 1.3-2.9.6-2.3-1.1 2.2-5.4 7.1-17.8 4.8-20.8z"/></g></svg>