<?xml version="1.0" encoding="utf-8"?>
<!-- Generator: Adobe Illustrator 24.1.3, SVG Export Plug-In . SVG Version: 6.00 Build 0)  -->
<svg version="1.1" id="Layer_1" xmlns="http://www.w3.org/2000/svg" xmlns:xlink="http://www.w3.org/1999/xlink" x="0px" y="0px"
	 viewBox="0 0 82.3 100" style="enable-background:new 0 0 82.3 100;" xml:space="preserve">
<style type="text/css">
	.st0{fill:#F4D44B;}
</style>
<path class="st0" d="M30.5,7.2c-3.2,2.4-6.6,4.5-10.2,6.4v0.6c0.4-0.1,0.7-0.2,1-0.4c0.4,0,0.7,0.1,0.7,0.6l0.7-0.4h0.4v0.3
	c-2.2,2.1-4.6,4-7.1,5.6l0.4,0.6H16l-0.7-0.3c0,0.2-0.3,0.4-1,0.4V21l0.8,0.9c-0.4,0-0.7-0.1-1-0.2c-1.9,0.4-3.6,1.6-4.5,3.4
	l0.4,0.6c0.7-0.7,1.4-1.3,2.3-1.8l0.1,1c-0.4,0.1-0.7,0.2-1,0.4l0.8,1.2c1.5-1.7,3.3-3.1,5.2-4.3c1,0.3,1.4,0.5,1.4,0.9h0.7
	c4.6-3.5,9.7-6.3,15.2-8.2v0.7c-1,1.4-1.6,2.1-1.9,2.1c0,0.5,0.2,0.9,0.5,1.3C31.3,24.7,29,30.5,26.3,36C18.7,54.8,9.9,73.1,0,90.8
	c0.1,0.3,0.2,0.7,0.4,1c1.2-0.2,2.3-0.6,3.4-1.3h0.4v0.7h0.7l0.7-0.5c0,0.2,0.3,0.3,0.7,0.3v0.7c-0.1,1.1-0.5,2.1-1.1,3
	c-1.1,1.5-1.9,3.3-2.3,5.1v0.3h0.7c2.6-2.8,4.8-6,6.5-9.4c6.6-1.8,13-4.2,19.1-7.2c3.6-0.1,7.1-1.3,10.1-3.4v-0.4l-1.7,0.5h-0.4
	v-0.4c2.4-0.2,4.7-0.9,6.7-2.2c6.3-4.9,11.1-8.3,14.3-10.4c10-7.3,14.7-14.4,14.1-21.1c-1.8-3-4-5.8-6.6-8.2c-0.1-1,1.4-2.2,4.5-4
	l8.7-7.6c2.3-3.6,3.5-7.8,3.5-12l-0.2-1.3c-0.4-3.9-3.1-7-8.5-9.4c-5.2-2.6-11-3.8-16.9-3.4C47.8,1.3,38.9,3.7,30.5,7.2L30.5,7.2z
	 M38.1,34.7c0.7-3.6,1.4-5.6,2.2-6.1l7.2-16.2c-0.1-1,1.4-1.8,4.6-2.3l1-0.1l0.1,1c3.1-0.5,5.1-0.7,5.8-0.8c5.7-0.5,8.7,0.7,9,3.5
	h0.7l-0.1-1.7h0.7c1.4,0.6,2.5,1.9,2.7,3.4c0,1.3-0.6,2.5-1.5,3.4c-0.4,0-0.7-0.3-0.7-1h-0.7l-0.2,2c-2.9,4.4-5,6.6-6.3,6.7
	c-1.2,1.6-1.9,2.4-2.2,2.5c-2.3,2.2-4.8,4-7.5,5.6c-5.2,1.5-10.2,3.5-15.1,5.8c-0.4-0.2-0.9-0.3-1.4-0.2v-0.6
	C36.5,37.7,37.1,36.1,38.1,34.7L38.1,34.7z M14.5,22.4v0.3c-0.4,0.1-0.7,0.2-1,0.4h-0.4v-0.6L14.5,22.4z M35.5,21.9l0.1,1
	c-0.3,0-0.7,0.5-1.3,1.4v-0.7c0.5-0.5,0.8-1,1-1.7L35.5,21.9z M32.3,28.7l0.1,1.3h-0.4L32,28.7L32.3,28.7z M31.5,31
	c-0.1,1.1-0.4,1.7-1,1.7h-0.4c0.3-0.5,0.5-1.1,0.6-1.7L31.5,31z M30.1,34.4v0.3l-0.6,1h-0.7v-0.3c0.5,0.1,0.9-0.3,1-0.8
	c0-0.1,0-0.2,0-0.3L30.1,34.4L30.1,34.4z M28.6,37.5l-0.2,1.6H28l-0.1-1.6H28.6z M36.2,42.4V43l-1.4,0.1v-0.6L36.2,42.4z M29.7,51.7
	c6.4-1,12.6-2.9,18.5-5.5l2.1-0.2c3.4-0.6,6.9,0.3,9.6,2.4l0.1,1.3c-1.6,4.5-3.3,7.1-5.2,8l-8.7,6.9c-3.3,2.4-6.9,4.6-10.5,6.5
	C29.6,75,23.1,78,16.3,80h-0.4C16.3,78.8,20.8,69.4,29.7,51.7L29.7,51.7z M39.1,48v0.3l-1.4,0.1v-0.3L39.1,48z M17.4,69.1
	c-0.4,2.2-1,3.4-1.4,3.4v-0.3C16,71,16.5,69.8,17.4,69.1L17.4,69.1z M26.1,81.4c7.3-2.9,14.3-6.6,20.9-10.9v0.6c0,0.3-1,1.1-2.9,2.5
	c-3.6,1.5-7,3.5-10.2,5.8c-6.3,2.2-9.4,3.5-9.3,4.1c-3.8,1.4-7.4,3-11,4.8c-0.6,0-1.2-0.2-1.8-0.5c-0.1-1.2,0.5-2.3,1.5-2.8
	c1-0.1,1.9,0.1,2.8,0.4c1.7-0.8,3.5-1.4,5.4-1.7v-0.7l-2.1,0.2c1.9-1.2,3.9-2.1,6-2.8l1-0.1v0.3c-1.7,0.1-2.7,0.7-3,1.6
	c0,0.3,0.2,0.6,0.6,0.6c0.1,0,0.1,0,0.2,0C24.9,82.5,25.5,82,26.1,81.4L26.1,81.4z M15.4,73.5v0.3c0.1,0.3-0.1,0.7-0.5,0.7
	c0,0-0.1,0-0.2,0v-0.3C14.8,73.8,15,73.5,15.4,73.5C15.4,73.5,15.4,73.5,15.4,73.5L15.4,73.5z M31.7,77.9c-1.7,0.4-3.2,1.1-4.7,2.1
	h-0.4v-0.7c1.6-0.1,3.1-0.8,4.3-2C31.4,77.3,31.7,77.5,31.7,77.9C31.8,77.9,31.8,77.9,31.7,77.9L31.7,77.9z M14.8,82.7l1-0.1v0.4
	c-0.4,0.1-0.7,0.2-1,0.4h-0.7C14.2,83,14.5,82.7,14.8,82.7z"/>
</svg>
