<svg enable-background="new 0 0 82.3 100" viewBox="0 0 82.3 100" xmlns="http://www.w3.org/2000/svg"><path d="m30.5 7.2c-3.2 2.4-6.6 4.5-10.2 6.4v.6c.4-.1.7-.2 1-.4.4 0 .7.1.7.6l.7-.4h.4v.3c-2.2 2.1-4.6 4-7.1 5.6l.4.6h-.4l-.7-.3c0 .2-.3.4-1 .4v.4l.8.9c-.4 0-.7-.1-1-.2-1.9.4-3.6 1.6-4.5 3.4l.4.6c.7-.7 1.4-1.3 2.3-1.8l.1 1c-.4.1-.7.2-1 .4l.8 1.2c1.5-1.7 3.3-3.1 5.2-4.3 1 .3 1.4.5 1.4.9h.7c4.6-3.5 9.7-6.3 15.2-8.2v.7c-1 1.4-1.6 2.1-1.9 2.1 0 .5.2.9.5 1.3-2 5.7-4.3 11.5-7 17-7.6 18.8-16.4 37.1-26.3 54.8.1.3.2.7.4 1 1.2-.2 2.3-.6 3.4-1.3h.4v.7h.7l.7-.5c0 .2.3.3.7.3v.7c-.1 1.1-.5 2.1-1.1 3-1.1 1.5-1.9 3.3-2.3 5.1v.3h.7c2.6-2.8 4.8-6 6.5-9.4 6.6-1.8 13-4.2 19.1-7.2 3.6-.1 7.1-1.3 10.1-3.4v-.4l-1.7.5h-.4v-.4c2.4-.2 4.7-.9 6.7-2.2 6.3-4.9 11.1-8.3 14.3-10.4 10-7.3 14.7-14.4 14.1-21.1-1.8-3-4-5.8-6.6-8.2-.1-1 1.4-2.2 4.5-4l8.7-7.6c2.3-3.6 3.5-7.8 3.5-12l-.2-1.3c-.4-3.9-3.1-7-8.5-9.4-5.2-2.6-11-3.8-16.9-3.4-9 1.1-17.9 3.5-26.3 7zm7.6 27.5c.7-3.6 1.4-5.6 2.2-6.1l7.2-16.2c-.1-1 1.4-1.8 4.6-2.3l1-.1.1 1c3.1-.5 5.1-.7 5.8-.8 5.7-.5 8.7.7 9 3.5h.7l-.1-1.7h.7c1.4.6 2.5 1.9 2.7 3.4 0 1.3-.6 2.5-1.5 3.4-.4 0-.7-.3-.7-1h-.7l-.2 2c-2.9 4.4-5 6.6-6.3 6.7-1.2 1.6-1.9 2.4-2.2 2.5-2.3 2.2-4.8 4-7.5 5.6-5.2 1.5-10.2 3.5-15.1 5.8-.4-.2-.9-.3-1.4-.2v-.6c.1-1.9.7-3.5 1.7-4.9zm-23.6-12.3v.3c-.4.1-.7.2-1 .4h-.4v-.6zm21-.5.1 1c-.3 0-.7.5-1.3 1.4v-.7c.5-.5.8-1 1-1.7zm-3.2 6.8.1 1.3h-.4v-1.3zm-.8 2.3c-.1 1.1-.4 1.7-1 1.7h-.4c.3-.5.5-1.1.6-1.7zm-1.4 3.4v.3l-.6 1h-.7v-.3c.5.1.9-.3 1-.8 0-.1 0-.2 0-.3zm-1.5 3.1-.2 1.6h-.4l-.1-1.6zm7.6 4.9v.6l-1.4.1v-.6zm-6.5 9.3c6.4-1 12.6-2.9 18.5-5.5l2.1-.2c3.4-.6 6.9.3 9.6 2.4l.1 1.3c-1.6 4.5-3.3 7.1-5.2 8l-8.7 6.9c-3.3 2.4-6.9 4.6-10.5 6.5-6 3.9-12.5 6.9-19.3 8.9h-.4c.4-1.2 4.9-10.6 13.8-28.3zm9.4-3.7v.3l-1.4.1v-.3zm-21.7 21.1c-.4 2.2-1 3.4-1.4 3.4v-.3c0-1.2.5-2.4 1.4-3.1zm8.7 12.3c7.3-2.9 14.3-6.6 20.9-10.9v.6c0 .3-1 1.1-2.9 2.5-3.6 1.5-7 3.5-10.2 5.8-6.3 2.2-9.4 3.5-9.3 4.1-3.8 1.4-7.4 3-11 4.8-.6 0-1.2-.2-1.8-.5-.1-1.2.5-2.3 1.5-2.8 1-.1 1.9.1 2.8.4 1.7-.8 3.5-1.4 5.4-1.7v-.7l-2.1.2c1.9-1.2 3.9-2.1 6-2.8l1-.1v.3c-1.7.1-2.7.7-3 1.6 0 .3.2.6.6.6h.2c.7-.3 1.3-.8 1.9-1.4zm-10.7-7.9v.3c.1.3-.1.7-.5.7 0 0-.1 0-.2 0v-.3c.1-.4.3-.7.7-.7zm16.3 4.4c-1.7.4-3.2 1.1-4.7 2.1h-.4v-.7c1.6-.1 3.1-.8 4.3-2 .5 0 .8.2.8.6.1 0 .1 0 0 0zm-16.9 4.8 1-.1v.4c-.4.1-.7.2-1 .4h-.7c.1-.4.4-.7.7-.7z" fill="#f4d44b"/></svg>