<svg enable-background="new 0 0 87.1 100" viewBox="0 0 87.1 100" xmlns="http://www.w3.org/2000/svg"><path d="m44 0c-24.3 0-44 19.7-44 44.1 0 21.5 15.3 39.3 35.6 43.3v12.6c26.3-4 49.6-24.9 51.4-52.4 1-16.6-7.2-33.5-21.1-41.7-.8-.5-1.6-.9-2.4-1.3s-1.7-.8-2.6-1.2c-.3-.2-.6-.3-.9-.4-.8-.3-1.6-.6-2.4-.8-4.2-1.4-8.8-2.2-13.6-2.2z" fill="#00a818"/><path d="m53.1 16.3c-1.5-.2-3.1.4-4.2 1.7-.8 1.1-1.3 2.1-1.9 3.2-1.6 3.8-1 7.8 1.4 10.8 3.8-.8 7-3.2 8.6-7 .5-1.1.8-2.5.8-3.5.2-2.9-2.2-4.9-4.7-5.2zm-19.6.3c-2.5.2-4.8 2.2-4.8 4.9 0 1.1.3 2.5.8 3.5 1.6 3.8 5.1 6.2 8.8 7 2.2-3 2.7-7 1.1-10.8-.5-1.1-1-2.1-1.9-3-1-1.3-2.5-1.8-4-1.6zm-13.2 12.9c-4.2.2-6.1 5.6-2.6 8.4 1.1.8 2.1 1.4 3.2 1.9 3.8 1.6 8.1 1.1 11.4-1.1-.8-3.5-3.5-6.7-7.3-8.4-1.3-.5-2.4-.8-3.8-.8-.4 0-.6 0-.9 0zm41.5 16.4c-2.5 0-5 .7-7 2 .8 3.5 3.5 6.7 7.3 8.4 1.3.5 2.4.8 3.8.8 4.8.3 7.2-5.7 3.4-8.4-1.1-.8-2.1-1.3-3.2-1.9-1.4-.6-2.9-.9-4.3-.9zm-36.8.3c-1.5 0-3 .3-4.4.9-1.3.5-2.4 1.1-3.2 1.9-3.5 3-1.1 8.6 3.7 8.4 1.3 0 2.7-.3 3.8-.8 3.8-1.6 6.4-4.8 7-8.4-2-1.4-4.4-2.1-6.9-2zm13.6 8.2c-3.8.8-7 3.2-8.6 7-.5 1.1-.8 2.4-.8 3.5-.3 4.6 6 7.1 8.7 3.5.8-1.1 1.3-2.1 1.9-3.2 1.5-3.5 1-7.5-1.2-10.8zm10 .3c-2.2 3-2.7 7-1.1 10.8.5 1.1 1 2.1 1.9 3 3 3.2 9.2.8 8.9-3.2 0-1.1-.3-2.5-.8-3.5-1.6-3.9-5.1-6.3-8.9-7.1z" fill="#fff"/></svg>