<?xml version="1.0" encoding="utf-8"?>
<!-- Generator: Adobe Illustrator 24.1.3, SVG Export Plug-In . SVG Version: 6.00 Build 0)  -->
<svg version="1.1" id="Layer_1" xmlns="http://www.w3.org/2000/svg" xmlns:xlink="http://www.w3.org/1999/xlink" x="0px" y="0px"
	 viewBox="0 0 87.1 100" style="enable-background:new 0 0 87.1 100;" xml:space="preserve">
<style type="text/css">
	.st0{fill:#00A818;}
	.st1{fill:#FFFFFF;}
</style>
<path class="st0" d="M44,0C19.7,0,0,19.7,0,44.1c0,21.5,15.3,39.3,35.6,43.3V100C61.9,96,85.2,75.1,87,47.6
	C88,31,79.8,14.1,65.9,5.9c-0.8-0.5-1.6-0.9-2.4-1.3c-0.8-0.4-1.7-0.8-2.6-1.2C60.6,3.2,60.3,3.1,60,3c-0.8-0.3-1.6-0.6-2.4-0.8
	C53.4,0.8,48.8,0,44,0z"/>
<path class="st1" d="M53.1,16.3c-1.5-0.2-3.1,0.4-4.2,1.7c-0.8,1.1-1.3,2.1-1.9,3.2C45.4,25,46,29,48.4,32c3.8-0.8,7-3.2,8.6-7
	c0.5-1.1,0.8-2.5,0.8-3.5C58,18.6,55.6,16.6,53.1,16.3L53.1,16.3z M33.5,16.6c-2.5,0.2-4.8,2.2-4.8,4.9c0,1.1,0.3,2.5,0.8,3.5
	c1.6,3.8,5.1,6.2,8.8,7c2.2-3,2.7-7,1.1-10.8c-0.5-1.1-1-2.1-1.9-3C36.5,16.9,35,16.4,33.5,16.6L33.5,16.6z M20.3,29.5
	c-4.2,0.2-6.1,5.6-2.6,8.4c1.1,0.8,2.1,1.4,3.2,1.9c3.8,1.6,8.1,1.1,11.4-1.1c-0.8-3.5-3.5-6.7-7.3-8.4c-1.3-0.5-2.4-0.8-3.8-0.8
	C20.8,29.5,20.6,29.5,20.3,29.5L20.3,29.5z M61.8,45.9c-2.5,0-5,0.7-7,2c0.8,3.5,3.5,6.7,7.3,8.4c1.3,0.5,2.4,0.8,3.8,0.8
	c4.8,0.3,7.2-5.7,3.4-8.4c-1.1-0.8-2.1-1.3-3.2-1.9C64.7,46.2,63.2,45.9,61.8,45.9L61.8,45.9z M25,46.2c-1.5,0-3,0.3-4.4,0.9
	c-1.3,0.5-2.4,1.1-3.2,1.9c-3.5,3-1.1,8.6,3.7,8.4c1.3,0,2.7-0.3,3.8-0.8c3.8-1.6,6.4-4.8,7-8.4C29.9,46.8,27.5,46.1,25,46.2
	L25,46.2z M38.6,54.4c-3.8,0.8-7,3.2-8.6,7c-0.5,1.1-0.8,2.4-0.8,3.5c-0.3,4.6,6,7.1,8.7,3.5c0.8-1.1,1.3-2.1,1.9-3.2
	C41.3,61.7,40.8,57.7,38.6,54.4L38.6,54.4z M48.6,54.7c-2.2,3-2.7,7-1.1,10.8c0.5,1.1,1,2.1,1.9,3c3,3.2,9.2,0.8,8.9-3.2
	c0-1.1-0.3-2.5-0.8-3.5C55.9,57.9,52.4,55.5,48.6,54.7L48.6,54.7z"/>
</svg>
