<?xml version="1.0" encoding="utf-8"?>
<!-- Generator: Adobe Illustrator 24.1.3, SVG Export Plug-In . SVG Version: 6.00 Build 0)  -->
<svg version="1.1" id="Layer_1" xmlns="http://www.w3.org/2000/svg" xmlns:xlink="http://www.w3.org/1999/xlink" x="0px" y="0px"
	 viewBox="0 0 87.5 100" style="enable-background:new 0 0 87.5 100;" xml:space="preserve">
<style type="text/css">
	.st0{fill:#FACB0E;}
</style>
<path class="st0" d="M85.4,78.8L62.5,42V12.5h1.6c2.6,0,4.7-2.1,4.7-4.7V4.7c0-2.6-2.1-4.7-4.7-4.7H23.4c-2.6,0-4.7,2.1-4.7,4.7v3.1
	c0,2.6,2.1,4.7,4.7,4.7H25V42L2.1,78.8C-3.6,88,3,100,13.8,100h59.8C84.5,100,91.1,88,85.4,78.8z M26.9,62.5l9.4-15.2
	c0.7-1,1.1-2.3,1.1-3.6V12.5H50v31.2c0,1.3,0.4,2.6,1.1,3.6l9.4,15.2H26.9z"/>
</svg>
