<svg enable-background="new 0 0 162.1 100" viewBox="0 0 162.1 100" xmlns="http://www.w3.org/2000/svg"><path d="m151 100h-139.3c-6.4 0-11.7-5.3-11.7-11.7v-76.6c0-6.4 5.3-11.7 11.7-11.7h138.8c6.3 0 11.7 5.3 11.7 11.7v76.7c-.1 6.3-4.9 11.6-11.2 11.6zm-139.3-92.2c-1.9 0-3.9 1.9-3.9 3.9v76.7c0 2.4 1.9 3.9 3.9 3.9h138.8c2.4 0 3.9-1.9 3.9-3.9v-76.7c0-2.4-1.9-3.9-3.9-3.9zm11.6 68.9v-53.4h15.5l15.5 19.4 15.5-19.4h15.5v53.4h-15.4v-30.6l-15.5 19.4-15.6-19.4v30.6zm97.6 0-23.3-25.7h15.5v-27.7h15.5v27.2h15.5z" fill="#35db92"/></svg>