<?xml version="1.0" encoding="utf-8"?>
<!-- Generator: Adobe Illustrator 24.1.3, SVG Export Plug-In . SVG Version: 6.00 Build 0)  -->
<svg version="1.1" id="Layer_1" xmlns="http://www.w3.org/2000/svg" xmlns:xlink="http://www.w3.org/1999/xlink" x="0px" y="0px"
	 viewBox="0 0 162.1 100" style="enable-background:new 0 0 162.1 100;" xml:space="preserve">
<style type="text/css">
	.st0{fill:#35DB92;}
</style>
<path class="st0" d="M151,100H11.7C5.3,100,0,94.7,0,88.3V11.7C0,5.3,5.3,0,11.7,0h138.8c6.3,0,11.7,5.3,11.7,11.7v76.7
	C162.1,94.7,157.3,100,151,100z M11.7,7.8c-1.9,0-3.9,1.9-3.9,3.9v76.7c0,2.4,1.9,3.9,3.9,3.9h138.8c2.4,0,3.9-1.9,3.9-3.9V11.7
	c0-2.4-1.9-3.9-3.9-3.9C150.5,7.8,11.7,7.8,11.7,7.8z M23.3,76.7V23.3h15.5l15.5,19.4l15.5-19.4h15.5v53.4H69.9V46.1L54.4,65.5
	L38.8,46.1v30.6H23.3L23.3,76.7z M120.9,76.7L97.6,51h15.5V23.3h15.5v27.2h15.5L120.9,76.7L120.9,76.7z"/>
</svg>
