<svg enable-background="new 0 0 112.3 100" viewBox="0 0 112.3 100" xmlns="http://www.w3.org/2000/svg"><g fill="#61dafb"><path d="m112.3 50c0-7.4-9.3-14.5-23.6-18.9 3.3-14.5 1.8-26.1-4.6-29.8-1.5-.9-3.3-1.3-5.2-1.3v5.1c1.1 0 1.9.2 2.6.6 3.2 1.8 4.5 8.6 3.5 17.3-.3 2.2-.7 4.4-1.2 6.7-4.5-1.1-9.4-1.9-14.5-2.5-3.1-4.2-6.3-8.1-9.5-11.4 7.4-6.9 14.4-10.7 19.2-10.7v-5.1c-6.3 0-14.5 4.5-22.9 12.3-8.3-7.8-16.6-12.2-22.9-12.2v5.1c4.8 0 11.8 3.8 19.3 10.7-3.2 3.4-6.4 7.2-9.5 11.4-5.2.5-10.1 1.4-14.6 2.5-.5-2.3-.9-4.5-1.2-6.6-1.1-8.7.3-15.5 3.3-17.3.7-.4 1.6-.6 2.6-.6v-5.2c-1.9 0-3.7.4-5.2 1.3-6.4 3.7-7.9 15.3-4.6 29.8-14 4.4-23.3 11.4-23.3 18.8s9.3 14.5 23.6 18.9c-3.3 14.6-1.8 26.1 4.6 29.8 1.5.9 3.2 1.3 5.1 1.3 6.3 0 14.5-4.5 22.9-12.3 8.3 7.7 16.6 12.2 22.9 12.2 1.9 0 3.7-.4 5.2-1.3 6.4-3.7 7.9-15.3 4.6-29.8 14.1-4.3 23.4-11.4 23.4-18.8zm-29.8-15.3c-.8 3-1.9 6-3.1 9-.9-1.8-1.9-3.7-3-5.5s-2.2-3.6-3.3-5.4c3.3.6 6.4 1.2 9.4 1.9zm-10.5 24.4c-1.8 3.1-3.6 6-5.5 8.7-3.4.3-6.9.5-10.3.5-3.5 0-6.9-.2-10.3-.4-1.9-2.7-3.8-5.6-5.5-8.7-1.7-3-3.3-6-4.8-9.1 1.4-3.1 3-6.1 4.7-9.1 1.8-3.1 3.6-6 5.5-8.7 3.4-.3 6.9-.5 10.3-.5 3.5 0 6.9.2 10.3.4 1.9 2.7 3.8 5.6 5.5 8.7 1.7 3 3.3 6 4.8 9.1-1.4 3.1-3 6.1-4.7 9.1zm7.4-3c1.2 3.1 2.3 6.1 3.2 9.1-3 .7-6.2 1.4-9.4 1.8 1.1-1.8 2.2-3.6 3.3-5.4 1-1.8 2-3.6 2.9-5.5zm-23.2 24.5c-2.1-2.2-4.3-4.6-6.4-7.3 2.1.1 4.2.2 6.3.2 2.2 0 4.3 0 6.4-.2-2.1 2.6-4.2 5.1-6.3 7.3zm-17-13.5c-3.3-.5-6.4-1.1-9.4-1.8.8-3 1.9-6 3.1-9 .9 1.8 1.9 3.7 3 5.5 1 1.8 2.1 3.5 3.3 5.3zm16.9-47.6c2.1 2.2 4.3 4.6 6.4 7.3-2.1-.1-4.2-.2-6.3-.2-2.2 0-4.3 0-6.4.2 2-2.7 4.2-5.1 6.3-7.3zm-17 13.4c-1.1 1.8-2.2 3.6-3.3 5.4s-2 3.7-3 5.5c-1.2-3.1-2.3-6.1-3.2-9.1 3.1-.7 6.3-1.3 9.5-1.8zm-20.7 28.7c-8.1-3.5-13.3-8-13.3-11.6s5.2-8.1 13.3-11.6c2-.8 4.1-1.6 6.3-2.3 1.3 4.5 3 9.2 5.1 13.9-2.1 4.8-3.8 9.4-5.1 13.9-2.1-.7-4.3-1.5-6.3-2.3zm12.3 32.7c-3.1-1.8-4.5-8.6-3.4-17.3.3-2.2.7-4.4 1.2-6.7 4.5 1.1 9.4 1.9 14.5 2.5 3.1 4.2 6.3 8.1 9.5 11.4-7.5 6.9-14.5 10.7-19.2 10.7-1 0-1.9-.2-2.6-.6zm54.3-17.4c1.1 8.7-.3 15.5-3.3 17.3-.7.4-1.6.6-2.6.6-4.7 0-11.8-3.8-19.2-10.7 3.2-3.4 6.4-7.2 9.5-11.4 5.2-.5 10.1-1.4 14.6-2.5.4 2.3.8 4.5 1 6.7zm8.8-15.3c-2 .8-4.1 1.6-6.3 2.3-1.3-4.5-3-9.2-5.1-13.9 2.1-4.8 3.8-9.4 5.1-13.9 2.3.7 4.4 1.5 6.4 2.3 8.1 3.5 13.3 8 13.3 11.6s-5.3 8.2-13.4 11.6z"/><circle cx="56.1" cy="50" r="10.5"/></g></svg>