<svg enable-background="new 0 0 1807.5 2498.8" viewBox="0 0 1807.5 2498.8" xmlns="http://www.w3.org/2000/svg" xmlns:xlink="http://www.w3.org/1999/xlink"><linearGradient id="a"><stop offset=".41" stop-color="#fff" stop-opacity="0"/><stop offset=".51" stop-color="#fff" stop-opacity=".15"/><stop offset=".74" stop-color="#fff" stop-opacity=".53"/><stop offset="1" stop-color="#fff"/></linearGradient><linearGradient id="b" gradientTransform="matrix(-1044.1759 0 0 421.3531 232542.0313 -686800.5625)" gradientUnits="userSpaceOnUse" x1="222.338" x2="221.338" xlink:href="#a" y1="1631.25" y2="1631.25"/><linearGradient id="c" gradientTransform="matrix(13.3777 0 0 -13.3729 -901.4492 23036.0762)" gradientUnits="userSpaceOnUse" x1="173.497" x2="173.497" y1="1698.652" y2="1698.493"><stop offset=".28" stop-color="#fff" stop-opacity="0"/><stop offset=".39" stop-color="#fff" stop-opacity=".01"/><stop offset=".48" stop-color="#fff" stop-opacity=".06"/><stop offset=".57" stop-color="#fff" stop-opacity=".13"/><stop offset=".65" stop-color="#fff" stop-opacity=".22"/><stop offset=".73" stop-color="#fff" stop-opacity=".35"/><stop offset=".81" stop-color="#fff" stop-opacity=".51"/><stop offset=".89" stop-color="#fff" stop-opacity=".69"/><stop offset=".97" stop-color="#fff" stop-opacity=".9"/><stop offset="1" stop-color="#fff"/></linearGradient><linearGradient id="d"><stop offset=".1" stop-color="#2dc4ed" stop-opacity="0"/><stop offset=".23" stop-color="#2dc4ed" stop-opacity=".01"/><stop offset=".34" stop-color="#2dc4ed" stop-opacity=".06"/><stop offset=".45" stop-color="#2dc4ed" stop-opacity=".13"/><stop offset=".55" stop-color="#2dc4ed" stop-opacity=".24"/><stop offset=".6" stop-color="#2dc4ed" stop-opacity=".3"/><stop offset=".8" stop-color="#2dc4ed" stop-opacity=".3"/><stop offset="1" stop-color="#2dc4ed" stop-opacity=".1"/></linearGradient><linearGradient id="e" gradientTransform="matrix(30.9339 0 0 -373.7006 -5527.3149 611755.875)" gradientUnits="userSpaceOnUse" x1="200.585" x2="200.585" xlink:href="#d" y1="1635.129" y2="1636.129"/><linearGradient id="f" gradientTransform="matrix(30.9339 0 0 -373.7006 -5075.0327 611755.875)" gradientUnits="userSpaceOnUse" x1="200.585" x2="200.585" xlink:href="#d" y1="1627.599" y2="1632.069"/><linearGradient id="g" gradientTransform="matrix(1187.9709 0 0 -217.3663 -261268 356740.2813)" gradientUnits="userSpaceOnUse" x1="228.089" x2="242.299" xlink:href="#a" y1="1637.298" y2="1637.298"/><linearGradient id="h" gradientTransform="matrix(1551.6394 0 0 -217.3605 -341721.5313 356830.25)" gradientUnits="userSpaceOnUse" x1="226.035" x2="244.595" xlink:href="#d" y1="1637.298" y2="1637.298"/><linearGradient id="i" gradientTransform="matrix(998.1938 0 0 -728.1599 -219287.2031 1192236.25)" gradientUnits="userSpaceOnUse" x1="220.587" x2="220.587" xlink:href="#a" y1="1633.999" y2="1634.999"/><linearGradient id="j" gradientTransform="matrix(1804.1074 0 0 -642.0543 -397575.8125 1050910.875)" gradientUnits="userSpaceOnUse" x1="219.309" x2="220.28" xlink:href="#a" y1="1613.476" y2="1626.776"/><linearGradient id="k" gradientTransform="matrix(1616.0105 0 0 -240.7889 -355961.7188 394347.8125)" gradientUnits="userSpaceOnUse" x1="225.671" x2="245.001" xlink:href="#d" y1="1636.909" y2="1636.909"/><path d="m1426.2 742.4h-1044.1v-421.4h1044.2v421.4z" fill="#2dc4ed"/><path d="m1426.2 742.4h-1044.1v-421.4h1044.2v421.4z" fill="url(#b)" opacity=".6"/><path d="m1239.8 742.4h186.4v-188.1z" fill="#fff" opacity=".2"/><path d="m1426.2 333.6v-13.4h-13.4z" fill="url(#c)"/><path d="m420.5 741.5h539.2l417.2-421.3h-539.2z" fill="#fff" opacity=".35"/><path d="m652.9 320.2h-270.8v273.4z" fill="#fff" opacity=".2"/><path d="m1426.2 744.9h-1044.1v-38.5h1044.2v38.5z" fill="#0d2e4f"/><path d="m382.1 320.2h1044.2v45.1h-1044.2z" fill="#004a72" opacity=".33"/><path d="m1105.2 333.6h41v373.7h-41zm-443.1 0h41v373.7h-41z" fill="#0d2e4f"/><path d="m662.1 333.6h30.9v373.7h-30.9z" fill="url(#e)"/><path d="m1114.4 333.6h30.9v373.7h-30.9z" fill="url(#f)"/><path d="m703.1 333.6h9.2v373.7h-9.2zm392.9 0h9.2v373.7h-9.2z" fill="#004a72" opacity=".3"/><path d="m346.9 746.6-36.8 209h1188l-36.8-209c-.8-4.9-5.1-8.4-10-8.4h-1095.2c-4.6.3-8.4 3.8-9.2 8.4z" fill="#ffc709"/><path d="m346.9 746.6-36.8 209h1188l-36.8-209c-.8-4.9-5.1-8.4-10-8.4h-1095.2c-4.6.3-8.4 3.8-9.2 8.4z" fill="url(#g)" opacity=".45"/><path d="m356.1 741.5c-4.6.3-8.4 3.8-9.2 8.4h1114.4v-3.3c-.8-4.9-5.1-8.4-10-8.4z" fill="#fff" opacity=".38"/><path d="m311.8 947.2h1184.6l-25.1-138.8h-1134.4z" fill="#814c1f" opacity=".3"/><path d="m165.5 846-37.6 209h1551.6l-36.8-209c-.8-4.6-4.6-8-9.2-8.4h-1458.8c-4.6.4-8.4 3.9-9.2 8.4z" fill="#0d2e4f"/><path d="m165.5 846-37.6 209h1551.6l-36.8-209c-.8-4.6-4.6-8-9.2-8.4h-1458.8c-4.6.4-8.4 3.9-9.2 8.4z" fill="url(#h)"/><path d="m140.4 1001.5-12.5 53.5h1552.5l-12.5-53.5z" fill="#0d2e4f" opacity=".35"/><path d="m474.9 2251.4h846.9c5.5 0 10 4.5 10 10v227.4c0 5.5-4.5 10-10 10h-846.9c-5.1 0-9.2-4.1-9.2-9.2v-229.9c.7-4.5 4.5-8 9.2-8.3z" fill="#2dc4ed"/><path d="m465.7 2437.8v-234.1h868.6v234.1" fill="#2dc4ed"/><path d="m402.1 1695.4v718.1c0 5.5 4.5 10 10 10h978.1c5.5 0 10-4.5 10-10v-718.1z" fill="#004a72"/><path d="m402.1 1695.4v718.1c0 5.5 4.5 10 10 10h978.1c5.5 0 10-4.5 10-10v-718.1z" fill="url(#i)" opacity=".42"/><path d="m402.1 2413.6c0 5.5 4.5 10 10 10h978.1c5.5 0 10-4.5 10-10zm1000.7-659.7h-998.2v-60.2h998.2z" fill="#0d2e4f"/><path d="m660.4 2423.6h-239c-7.8 0-14.2-6.4-14.2-14.2v-714h253.3z" fill="#0d2e4f" opacity=".4"/><path d="m1392 2423.6h-245v-728.2h250.8v716.5c0 6.5-5.2 11.7-11.7 11.7z" fill="#fff" opacity=".4"/><path d="m1756.5 1050h-1705.5c-4.4.2-8.1 3.3-9.2 7.5l-41.8 167.3 298.5 459c3.3 5.1 9 8.2 15 8.4h1180.5c6.1-.1 11.7-3.3 15-8.4l298.5-459-41.8-167.2c-1.1-4.3-4.9-7.3-9.2-7.6z" fill="#ffc709"/><path d="m1756.5 1050h-1705.5c-4.4.2-8.1 3.3-9.2 7.5l-41.8 167.3 298.5 457.3c3.5 6 9.8 9.8 16.7 10h1173.8c6.9-.2 13.3-4 16.7-10l298.5-457.3-41.8-167.2c-.7-3.4-2.9-6.2-5.9-7.6z" fill="#ffc709"/><path d="m1756.5 1050h-1705.5c-4.4.2-8.1 3.3-9.2 7.5l-41.8 167.3 298.5 457.3c3.5 6 9.8 9.8 16.7 10h1173.8c6.9-.2 13.3-4 16.7-10l298.5-457.3-41.8-167.2c-.7-3.4-2.9-6.2-5.9-7.6z" fill="url(#j)" opacity=".63"/><path d="m646.2 1686.2-298.5-457.3 41.8-167.2c-.5-6 3.9-11.3 9.9-11.8.9-.1 1.8 0 2.7.1h-351.1c-4.4.2-8.1 3.3-9.2 7.5l-41.8 167.3 298.5 457.3c3.5 6 9.8 9.8 16.7 10h348.6c-6.4.7-12.9-1.4-17.6-5.9z" fill="#b27e4f" opacity=".3"/><path d="m1161.2 1686.2 298.5-457.3-41.8-167.2c-1.4-4.4-5.4-7.4-10-7.5h348.6c4.4.2 8.1 3.3 9.2 7.5l41.8 167.2-298.5 457.3c-3.5 6-9.8 9.8-16.7 10h-348.6c7.1-.2 13.7-3.9 17.5-10z" fill="#fff" opacity=".4"/><path d="m174.7 837.7c-4.6.3-8.4 3.8-9.2 8.4h1477.2c-.8-4.6-4.6-8-9.2-8.4z" fill="#0d2e4f"/><path d="m198.1 77.8h1412l-19.2-69.4c-1.4-4.8-5.8-8.2-10.9-8.4h-1355.1c-5-.1-9.2 3.5-10 8.4z" fill="#ffc709"/><path d="m198.1 81.1h1412l-5.8-20.9h-1401.2z" fill="#b47d4f" opacity=".3"/><path d="m140.4 335.2h1526.6c3.8 0 7.1-2.9 7.5-6.7l37.6-250.8h-1616l37.6 250.8c.1 3.8 3.1 6.7 6.7 6.7z" fill="#0d2e4f"/><path d="m140.4 318.5h1526.6c3.6.1 6.7-2.4 7.5-5.9l37.6-234.9h-1616l37.6 231.6c-1.4 3.4.2 7.3 3.7 8.7 1 .4 2 .6 3 .5z" fill="url(#k)"/><path d="m1712.1 81.1h-1616l1.7 10h1612.7z" fill="#fff"/><path d="m0 1228.9h1807.4l-4.2-17.6h-1799z" fill="#fff" opacity=".4"/><path d="m1807.4 1228.9h-1807.4l298.5 457.3c3.5 6 9.8 9.8 16.7 10h1173.8c6.9-.2 13.3-4 16.7-10l298.5-457.3z" fill="#b27e4f" opacity=".6"/></svg>