<svg enable-background="new 0 0 72.3 100" viewBox="0 0 72.3 100" xmlns="http://www.w3.org/2000/svg" xmlns:xlink="http://www.w3.org/1999/xlink"><linearGradient id="a"><stop offset=".41" stop-color="#fff" stop-opacity="0"/><stop offset=".51" stop-color="#fff" stop-opacity=".15"/><stop offset=".74" stop-color="#fff" stop-opacity=".53"/><stop offset="1" stop-color="#fff"/></linearGradient><linearGradient id="b" gradientTransform="matrix(-1044.1759 0 0 -421.3531 -49219.2773 -499391.5625)" gradientUnits="userSpaceOnUse" x1="-47.152" x2="-47.192" xlink:href="#a" y1="-1185.26" y2="-1185.26"/><linearGradient id="c" gradientTransform="matrix(13.3777 0 0 13.3729 2435.364 16730.6973)" gradientUnits="userSpaceOnUse" x1="-177.8" x2="-177.8" y1="-1250.132" y2="-1250.125"><stop offset=".28" stop-color="#fff" stop-opacity="0"/><stop offset=".39" stop-color="#fff" stop-opacity=".01"/><stop offset=".48" stop-color="#fff" stop-opacity=".06"/><stop offset=".57" stop-color="#fff" stop-opacity=".13"/><stop offset=".65" stop-color="#fff" stop-opacity=".22"/><stop offset=".73" stop-color="#fff" stop-opacity=".35"/><stop offset=".81" stop-color="#fff" stop-opacity=".51"/><stop offset=".89" stop-color="#fff" stop-opacity=".69"/><stop offset=".97" stop-color="#fff" stop-opacity=".9"/><stop offset="1" stop-color="#fff"/></linearGradient><linearGradient id="d"><stop offset=".1" stop-color="#2dc4ed" stop-opacity="0"/><stop offset=".23" stop-color="#2dc4ed" stop-opacity=".01"/><stop offset=".34" stop-color="#2dc4ed" stop-opacity=".06"/><stop offset=".45" stop-color="#2dc4ed" stop-opacity=".13"/><stop offset=".55" stop-color="#2dc4ed" stop-opacity=".24"/><stop offset=".6" stop-color="#2dc4ed" stop-opacity=".3"/><stop offset=".8" stop-color="#2dc4ed" stop-opacity=".3"/><stop offset="1" stop-color="#2dc4ed" stop-opacity=".1"/></linearGradient><linearGradient id="e" gradientTransform="matrix(30.9339 0 0 373.7006 2542.3459 444888.0625)" gradientUnits="userSpaceOnUse" x1="-81.31" x2="-81.31" xlink:href="#d" y1="-1190.418" y2="-1190.458"/><linearGradient id="f" gradientTransform="matrix(30.9339 0 0 373.7006 2994.6282 444888.0625)" gradientUnits="userSpaceOnUse" x1="-95.346" x2="-95.346" xlink:href="#d" y1="-1190.116" y2="-1190.295"/><linearGradient id="g" gradientTransform="matrix(1187.9709 0 0 217.3663 58718.793 259535.2188)" gradientUnits="userSpaceOnUse" x1="-49.101" x2="-48.532" xlink:href="#a" y1="-1193.843" y2="-1193.843"/><linearGradient id="h" gradientTransform="matrix(1551.6394 0 0 217.3605 76303.9766 259627.7656)" gradientUnits="userSpaceOnUse" x1="-48.944" x2="-48.201" xlink:href="#d" y1="-1194.283" y2="-1194.283"/><linearGradient id="i" gradientTransform="matrix(998.1938 0 0 728.1599 49538.957 867421)" gradientUnits="userSpaceOnUse" x1="-49.593" x2="-49.593" xlink:href="#a" y1="-1191.117" y2="-1191.158"/><linearGradient id="j" gradientTransform="matrix(1804.1074 0 0 642.0543 88510.6953 764464.375)" gradientUnits="userSpaceOnUse" x1="-49.103" x2="-49.064" xlink:href="#a" y1="-1189.72" y2="-1190.253"/><linearGradient id="k" gradientTransform="matrix(1616.0105 0 0 240.7889 79417.1172 286705.625)" gradientUnits="userSpaceOnUse" x1="-48.928" x2="-48.154" xlink:href="#d" y1="-1190.66" y2="-1190.66"/><path d="m57.1 29.7h-41.8v-16.9h41.8z" fill="#2dc4ed"/><path d="m57.1 29.7h-41.8v-16.9h41.8z" fill="url(#b)" opacity=".6"/><path d="m49.6 29.7h7.5v-7.5z" fill="#fff" opacity=".2"/><path d="m57.1 13.4v-.5h-.5z" fill="url(#c)"/><path d="m16.8 29.7h21.6l16.7-16.9h-21.6z" fill="#fff" opacity=".35"/><path d="m26.1 12.8h-10.8v10.9z" fill="#fff" opacity=".2"/><path d="m57.1 29.8h-41.8v-1.5h41.8z" fill="#0d2e4f"/><path d="m15.3 12.8h41.8v1.8h-41.8z" fill="#004a72" opacity=".33"/><path d="m44.2 13.4h1.6v15h-1.6zm-17.7 0h1.6v15h-1.6z" fill="#0d2e4f"/><path d="m26.5 13.4h1.2v15h-1.2z" fill="url(#e)"/><path d="m44.6 13.4h1.2v15h-1.2z" fill="url(#f)"/><path d="m28.1 13.4h.4v15h-.4zm15.8 0h.4v15h-.4z" fill="#004a72" opacity=".3"/><path d="m13.9 29.9-1.5 8.4h47.6l-1.5-8.4c0-.2-.2-.3-.4-.3h-43.8c-.2 0-.4.1-.4.3z" fill="#ffc709"/><path d="m13.9 29.9-1.5 8.4h47.6l-1.5-8.4c0-.2-.2-.3-.4-.3h-43.8c-.2 0-.4.1-.4.3z" fill="url(#g)" opacity=".45"/><path d="m14.3 29.7c-.2 0-.3.2-.4.3h44.6v-.1c0-.2-.2-.3-.4-.3z" fill="#fff" opacity=".38"/><path d="m12.5 37.9h47.4l-1-5.6h-45.4z" fill="#814c1f" opacity=".3"/><path d="m6.6 33.9-1.5 8.4h62.1l-1.5-8.4c0-.2-.2-.3-.4-.3h-58.3c-.2-.1-.3.1-.4.3z" fill="#0d2e4f"/><path d="m6.6 33.9-1.5 8.4h62.1l-1.5-8.4c0-.2-.2-.3-.4-.3h-58.3c-.2-.1-.3.1-.4.3z" fill="url(#h)"/><path d="m5.6 40.1-.5 2.1h62.1l-.5-2.1z" fill="#0d2e4f" opacity=".35"/><path d="m19 90.1h33.9c.2 0 .4.2.4.4v9.1c0 .2-.2.4-.4.4h-33.9c-.2 0-.4-.2-.4-.4v-9.2c.1-.1.2-.3.4-.3z" fill="#2dc4ed"/><path d="m18.6 97.6v-9.4h34.8v9.4" fill="#2dc4ed"/><path d="m16.1 67.8v28.7c0 .2.2.4.4.4h39.1c.2 0 .4-.2.4-.4v-28.7z" fill="#004a72"/><path d="m16.1 67.8v28.7c0 .2.2.4.4.4h39.1c.2 0 .4-.2.4-.4v-28.7z" fill="url(#i)" opacity=".42"/><path d="m16.1 96.6c0 .2.2.4.4.4h39.1c.2 0 .4-.2.4-.4zm40-26.4h-39.9v-2.4h39.9z" fill="#0d2e4f"/><path d="m26.4 97h-9.6c-.3 0-.6-.3-.6-.6v-28.6h10.1z" fill="#0d2e4f" opacity=".4"/><path d="m55.7 97h-9.8v-29.2h10v28.7c0 .3-.2.5-.5.5z" fill="#fff" opacity=".4"/><path d="m70.3 42h-68.3c-.2 0-.3.1-.4.3l-1.6 6.7 11.9 18.4c.1.2.4.3.6.3h47.2c.2 0 .5-.1.6-.3l12-18.4-1.7-6.7c0-.1-.1-.3-.3-.3z" fill="#ffc709"/><path d="m70.3 42h-68.3c-.2 0-.3.1-.4.3l-1.6 6.7 11.9 18.3c.1.2.4.4.7.4h47c.3 0 .5-.2.7-.4l11.9-18.3-1.7-6.7c0-.1-.1-.2-.2-.3z" fill="#ffc709"/><path d="m70.3 42h-68.3c-.2 0-.3.1-.4.3l-1.6 6.7 11.9 18.3c.1.2.4.4.7.4h47c.3 0 .5-.2.7-.4l11.9-18.3-1.7-6.7c0-.1-.1-.2-.2-.3z" fill="url(#j)" opacity=".63"/><path d="m25.9 67.5-12-18.3 1.7-6.7c0-.2.2-.5.4-.5h.1-14.1c-.2 0-.3.1-.4.3l-1.6 6.7 11.9 18.3c.1.2.4.4.7.4h14c-.3 0-.6 0-.7-.2z" fill="#b27e4f" opacity=".3"/><path d="m46.5 67.5 11.9-18.3-1.7-6.7c-.1-.2-.2-.3-.4-.3h14c.2 0 .3.1.4.3l1.7 6.7-12 18.3c-.1.2-.4.4-.7.4h-14c.4 0 .6-.2.8-.4z" fill="#fff" opacity=".4"/><path d="m7 33.5c-.2 0-.3.2-.4.3h59.1c0-.2-.2-.3-.4-.3z" fill="#0d2e4f"/><path d="m7.9 3.1h56.5l-.8-2.8c0-.2-.2-.3-.4-.3h-54.2c-.2 0-.4.1-.4.3z" fill="#ffc709"/><path d="m7.9 3.2h56.5l-.2-.8h-56.1z" fill="#b47d4f" opacity=".3"/><path d="m5.6 13.4h61.1c.2 0 .3-.1.3-.3l1.5-10h-64.7l1.5 10c.1.2.2.3.3.3z" fill="#0d2e4f"/><path d="m5.6 12.7h61.1c.1 0 .3-.1.3-.2l1.5-9.4h-64.7l1.5 9.3c-.1.1 0 .3.1.3s.2.1.2 0z" fill="url(#k)"/><path d="m68.5 3.2h-64.7l.1.4h64.5z" fill="#fff"/><path d="m0 49.2h72.3l-.2-.7h-72z" fill="#fff" opacity=".4"/><path d="m72.3 49.2h-72.3l11.9 18.3c.1.2.4.4.7.4h47c.3 0 .5-.2.7-.4l11.9-18.3z" fill="#b27e4f" opacity=".6"/></svg>