<svg enable-background="new 0 0 102.6 100" viewBox="0 0 102.6 100" xmlns="http://www.w3.org/2000/svg" xmlns:xlink="http://www.w3.org/1999/xlink"><radialGradient id="a" cx="-438.658" cy="117.19" gradientTransform="matrix(2291.6716 0 0 -2218.7549 1005296.3125 260040.5469)" gradientUnits="userSpaceOnUse" r=".031"><stop offset="0" stop-color="#423325" stop-opacity=".98"/><stop offset="1" stop-color="#1c0a00"/></radialGradient><path d="m4.3 4.3h94v91.5h-94z" fill="url(#a)"/><path d="m4.3 4.3h94v91.5h-94zm-4.3 95.7h102.6v-100h-102.6zm67.2-64.4c0-.3.1-.5.5-.5h6.7c.3 0 .5.1.5.5v33.7c0 .3-.1.5-.5.5h-6.6c-.4 0-.6-.2-.6-.6zm-.5-9.7c0-2.7 1.9-4.4 4.4-4.4 2.6 0 4.4 1.8 4.4 4.4 0 2.8-1.8 4.4-4.4 4.4s-4.4-1.5-4.4-4.4zm-19.2 23.8c-1.2-4.7-4-15.1-5.1-20.1h-.1c-.9 5-3.2 13.5-5 20.1zm-11.9 6.9-3.4 12.8c-.1.3-.2.4-.6.4h-6.3c-.4 0-.5-.1-.4-.6l12.1-42.4c.2-.8.3-1.5.4-3.5 0-.3.1-.4.3-.4h9c.3 0 .4.1.5.4l13.6 46.1c.1.3 0 .6-.3.6h-7.1c-.3 0-.6-.1-.6-.4l-3.5-12.9h-13.7z" fill="#ff7f18"/></svg>