<svg enable-background="new 0 0 33.7 50" viewBox="0 0 33.7 50" xmlns="http://www.w3.org/2000/svg"><path d="m33.7 48c0 1.1-7.5 2-16.9 2-9.3 0-16.8-.9-16.8-2s8.9-2 16.9-2c9.5-.1 16.8.8 16.8 2" fill="#1a4658"/><path d="m32.7 33.2c-.5 0-1.1-.2-1.5-2.1-.4-1.8-1-3.7-1-3.7.6 0 1-.3 1-.3-.4-.2-1.4-.9-2-1.7s-2.3-2.2-2.3-2.2v-2.7c0-1.8 1.2-3.3 1.2-3.3-.8 0-1.2.7-1.2.7v-3.9c0-3.9 1.9-5.6 1.9-5.6-.6 0-1 .2-1 .2.3-2.8 1.2-3.7 1.2-3.7-3.2-.8-5 1-5 1-.4-1.6 1-2.6 1-2.6-1.6-.4-3 .1-3 .1 0-2.6 1-3.4 1-3.4-5 0-7.9 3.8-7.9 3.8-.2-1.6.2-3 .2-3-4.9 2-6.1 6.6-6.1 6.6-.3-.8-.3-2.6-.3-2.6s-2 3.4-2.4 5.7.3 9 .3 9-.3-.4-1-.5c0 0 .7.8.7 2.6 0 0-.3-.2-.8-.1 0 0 .8.7.8 1.8 0 0-.9.6-1.4 1.2 0 0-.8 0-1.2.2 0 0 .6.4.8.7 0 0-1.9 1.9-2.8 3.5 0 0 .8-.5 1.4-.4 0 0-1.3 1.6-1.8 4.3 0 0 .6-.3.9-.2 0 0-.8 1.7-.8 3.5l-.9.5.7.5s-.5 2.2-.6 3.4c0 0 .4-.4.7-.5 0 0 .4 1 1 1.8s2 1.5 2.8 1.5h1.7c-.2.8-.6 1.5-1.3 1.5l-.1.1c0 .2-.5.3-.6.4-.4.5-.7 1.2-.9 1.8-.1.4-.1.4-.2.9 0 .1-.2.3-.2.5.4-.1 1.6-.2 2.3-.3v.6s.1.1.3.2h.2c.9-.1 1.6.1 2.7 0 .2 0 .4-.1.6-.2.1-.2.1-.2.1-.4v-.1h.1.1.7c.6 0 1.5.1 1.5.1.1-.7.1-1.9 1.3-5.1l.3-.2s3.6 1.3 7-.1c.3.7 1.1 2.8 1.3 4.2.1.2.1.4.1.6v.6c.1 0 .6-.1 1.1-.1h.7.1.1v.1c0 .2 0 .2.1.4h.1c.6-.1 1.2-.1 1.8-.1.5 0 .9.1 1.4.2h.1c.3 0 .5.1.8.1 0-.3 0-.6 0-.8.5 0 1.2.1 1.5.2.1 0 .2 0 .3.1.1 0 .2.1.4.1 0-.3 0-.3-.1-.6 0-.3-.2-1.1-.6-1.4 0 0 .4.2.5.2-.4-.5-.6-1.2-1.8-1.8 0 0 .2-.1.4-.1-.2-.1-.4-.2-.6-.2.1-.2.4-.7.7-.8 0 0-.2-.1-.4 0-.1.1-.2.1-.3.2h-.1c-.1-.3-.1-.6-.2-.9 2.4-.1 2.7-1.3 2.7-1.3.2.2.2.5.2.5 1-1.4.9-2.7.9-2.7.2 0 .4.2.4.2.1-2.1-.5-5.7-.5-5.7.3.2.5 0 .5 0-.4-.2-.4-.6-.4-.6.5.1.6-.4.6-.4" fill="#edf7fa"/><path d="m9.7 48.3s.1-1-.2-1.7c0 0 .6 0 .7 1.7 0 0-.4 0-.5 0" fill="#cde9ee"/><path d="m15.1 3.8c-.2-1.6.2-3 .2-3-4.9 2-6.1 6.6-6.1 6.6-.3-.8-.3-2.6-.3-2.6s-2 3.4-2.4 5.7.3 9 .3 9-.3-.4-1-.5c0 0 .7.8.7 2.6 0 0-.3-.2-.8-.1 0 0 .8.7.8 1.8 0 0-.9.6-1.4 1.2 0 0-.8 0-1.2.2 0 0 .6.4.8.7 0 0-1.9 1.9-2.8 3.5 0 0 .8-.5 1.4-.4 0 0-1.3 1.6-1.8 4.3 0 0 .6-.3.9-.2 0 0-.8 1.7-.8 3.5l-.9.5.7.5s-.5 2.2-.6 3.4c0 0 .4-.4.7-.5 0 0 .4 1 1 1.8s2 1.5 2.8 1.5h.1c0 .3-.1.6-.2.8 0 0-.1.1-.1 0 .1 0 0 0-.1-.1-.3-.1-.4 0-.4 0 .3.1.6.6.7.8-.2 0-.4 0-.6.2.2 0 .4.1.4.1-1.2.5-1.4 1.2-1.8 1.8.1-.1.5-.2.5-.2-.3.3-.5 1.1-.6 1.3 0 .3 0 .3-.1.6.3-.1.5-.1.7-.2.4-.1 1.5-.2 1.9-.2l-.1.8h.7c0-.2 0-.4 0-.6 0-.4 0-.7.1-1.1.1-.5.4-.8.6-1 .1-.1.1-.1.1-.2.1-.2.2-.3.3-.5.2-.5.1-1.4-.2-2.4.3.5.7.9.8 1.1v-1.2s.6.6 1.2 1.1c.3.2.6.6.9.7 0 0 0-.1.1.1.3.2.7.3 1 .5 0 0 .1 0 .1.1.1.1.4.2.6.3l.2 2.6c.2-2.7 1.7-5.3 1.7-5.3h-.1c-.5-.1-3.9-1.3-6-5.6-.1-.3.8.3.8.3-.8-2-1.2-5.3-1.2-5.3.3.2.6.3.6.3-.6-1.9-.8-4-.8-5.9-.2-10.2 3.6-12.5 3.6-12.5-.6-.2-1.3-.2-1.3-.2.7-1.8 3.2-4.3 3.2-4.3-.7 0-3.3.7-3.3.7 2.1-5.6 4.3-7.1 4.3-7.1-.1 1.4.4 2.9.4 2.9 4.7-5.8 8.4-5.5 8.4-5.5.3-.6.6-1 .6-1-5 0-7.9 3.8-7.9 3.8m13.2 44.5s0-1.5-.4-2.2c0 0 .9.5.9 2.2z" fill="#cde9ee"/><path d="m5.8 40.8c.6-5.6.7-16.5.7-16.5-1.2 2.4-2.2 6.9-2.2 6.9l.2 1-.5-.3c-.9 3-.3 7.1-.1 8.2.6.5 1.3.6 1.9.7m-1.1-.1c.2.9.4 1.8.6 2.6h.3c.1-.5.2-1.4.3-2.4-.5 0-.9-.1-1.2-.2" fill="#abd8d7"/><path d="m23.5 45.5c-.1 0-.2 0-.2 0 .8-.6.9-1.2.9-1.2-.5.2-1.1.3-1.4.4 1.9-1.7 2.2-4.7 2.2-4.7-.8 1-1.9 1.8-2.8 2.3s-.6.3-1.1.6h-.1c-.3.1-.5.2-.7.3 0 0 .4.8.6 1.3s.6 1.5.9 3c0 .2 0 .5.1.6v.4c.8-.1 2 0 2 0 0 .1.1.5.1.5.4-.1.8-.1 1.2-.1.1-1.5.1-3.9-1.7-3.4" fill="#cde9ee"/><path d="m5.8 41.2c-1.3-.2-2.5-1.8-2.5-1.8 1 1 2.2 1.2 2.2 1.2.2-1.2-.8-3.9-.8-3.9.7.9 1.1 1.9 1.3 2.8z" fill="#83bac0"/><path d="m8.8 39.2s1 1.8 2 2.6c1 .9 1.9 2.1 2.3 2.8 0 0 .5-1.2.8-1.6-.1.1-3-.8-5.1-3.8m13.7 3.6c.1-.2.3-.4.5-.6.3-.3.6-.6.8-1-.4.3-.8.5-1.2.8-1.2.8-2.1 1.1-2.1 1.1.3.4.8 1.6.8 1.6.2-.4.7-1.1 1.2-1.7-.1-.1-.1-.2 0-.2" fill="#abd8d7"/><path d="m8.4 11.7c-.1 0-.5 0-.5 0-3.3.3-5.7-2.3-5.7-2.3s-.2 2 1.2 3.8 4.4 2.1 4.4 2.1c.1.4-.1 1.3-.1 1.3s.9-.9 1.1-2.7c.1-1.4-.3-2.2-.4-2.2" fill="#545352"/><path d="m8.4 11.7c-.1 0-.5 0-.5 0-3.3.3-5.7-2.3-5.7-2.3s1.5 4.4 6.6 4c0 0 .1-.8-.4-1.7" fill="#6e7979"/><path d="m24.9 11.7h.5c3.3.2 5.7-2.3 5.7-2.3s.2 2-1.2 3.8-4.4 2.1-4.4 2.1c-.1.4.1 1.3.1 1.3s-.9-.9-1.1-2.7c0-1.4.4-2.2.4-2.2" fill="#545352"/><path d="m24.9 11.7h.5c3.3.2 5.7-2.3 5.7-2.3s-1.5 4.4-6.6 4c.1 0 0-.8.4-1.7" fill="#6e7979"/><path d="m6.7 26.5s-2.4 8.5 0 14zm23.7 13.5c-1.2.9-2.4 1-2.4 1-.1-1.2 1.2-3.7 1.2-3.7-.3.2-.5.4-.7.6v-.9l.9-.8-.7-.6.9-3.8-.9.6s-.3-5.4-.1-7.7c0 0-1.1-1.1-1.7-1.6 0 0 .1 1.7.2 4.3.5 2.1 1.3 6.5.3 10.4v2.4s.5 1.7.7 2.9h.4v-1.8c1.3-.3 1.9-1.3 1.9-1.3m-11.2-16.5c0 .9.6 1.7 1.3 1.7s1.3-.7 1.3-1.7c0-.9-.6-1.7-1.3-1.7s-1.3.8-1.3 1.7" fill="#cde9ee"/><path d="m19.3 23.1c0 .9.6 1.6 1.3 1.6s1.3-.7 1.3-1.6-.6-1.6-1.3-1.6c-.7-.1-1.3.7-1.3 1.6" fill="#fff"/><path d="m20.2 22.2v.1c0 .2.1.4.3.4s.3-.1.3-.3c.1.1.2.3.2.5 0 .4-.3.8-.6.8s-.6-.3-.6-.8c0-.3.2-.6.4-.7" fill="#474746"/><path d="m13 23.5c0 .9.6 1.7 1.3 1.7s1.3-.7 1.3-1.7c0-.9-.6-1.7-1.3-1.7s-1.3.8-1.3 1.7" fill="#cde9ee"/><path d="m13 23.1c0 .9.6 1.6 1.3 1.6s1.3-.7 1.3-1.6-.6-1.6-1.3-1.6c-.7-.1-1.3.7-1.3 1.6" fill="#fff"/><path d="m14.2 22.2v.1c0 .2.1.4.3.4s.3-.1.3-.3c.1.1.2.3.2.5 0 .4-.3.8-.6.8s-.6-.3-.6-.8c0-.3.2-.6.4-.7" fill="#474746"/><path d="m23.9 24.8c-.1.2-.4.3-1.2.5h-.1c-.8.1-2.2.1-2.9 0h-.1c-.7-.1-.8-.2-1-.6s-.4-1.5-.4-1.7 0-.3.3-.5c.4-.2 2.2-.4 2.9-.5.6 0 1.8.1 2.3.1h.2c.1 0 .3.1.3.4.1.4-.1 2-.3 2.3zm-7.7-1.8c0 .2-.2 1.3-.4 1.7s-.3.5-1 .6h-.1c-.8.1-2.1.1-2.9 0h-.1c-.8-.2-1.1-.2-1.2-.5s-.3-1.9-.3-2.2.2-.4.3-.4h.2c.6-.1 1.8-.2 2.3-.1.7 0 2.5.3 2.9.5.4 0 .3.1.3.4zm8.8-1.5c-.6-.1-1.6-.2-2.8-.1-1.6.1-2.9.3-3.8.4-.2 0-.4.1-.6.1h-.2c-.2 0-.3 0-.4 0s-.2 0-.4 0h-.2c-.1 0-.3-.1-.6-.1-.8-.1-2.2-.4-3.8-.4-1.2-.1-2.2 0-2.8.1 0 0-.6.1-1.2.3l.1.7s.6-.1 1.1-.2c.1 1 .3 2.2.3 2.2v.2c.1.5.2.8.7.9.4.2 1.5.3 2.5.4.4 0 .8 0 1.3-.1.7-.1 1.3-.3 1.5-.4.3-.2.5-.9.6-1.3v-.1c0-.1.1-.3.1-.4.1-.2.1-.4.1-.5 0 0 0-.1.2-.1h.2.2c.1 0 .2.1.2.1 0 .1.1.3.1.5 0 .1.1.3.1.4v.1c.1.4.3 1 .6 1.3.2.2.8.4 1.5.4.5.1.9.1 1.3.1 1.1-.1 2.1-.2 2.5-.4.5-.2.6-.5.7-.9 0-.1 0-.1 0-.2s.2-1.2.3-2.2c.5.1 1.1.2 1.1.2l.1-.7c0-.2-.6-.3-.6-.3z" fill="#545352"/><path d="m14.7 19.8s-1.5-.7-2.3.6c0 0-.1-1.3 1.1-1.4 1.2-.2 1.2.8 1.2.8m-.6-1.9s-1.3-.6-2 .6c0 0-.2-1.1.8-1.3s1.2.7 1.2.7m5.8 2.7s1.1-.5 1.8.5c0 0 .1-1-.8-1.1-1-.2-1 .6-1 .6m.8-1.8s1.1-.2 1.3.9c0 0 .4-.8-.3-1.2-.6-.4-1 .3-1 .3" fill="#a0d1de"/><path d="m14.6 29.9s.8-.5 1.3-.6c0 0 .1 1 .6 1.5 0 0 1-.9 2-1 0 0 .3.6.7.8.2.1.3.2.5.2 0 0 .6-.3.7-1 0 0 .1 1.3-.8 2.1 0 0-.6-.3-1.1-.8-.1-.1-.3-.3-.4-.4 0 0-1.5 1-1.5 1.6 0 0-1.1-1-1.4-1.8 0 0-.7.2-.9.4 0 0-.6-.9-.7-1.8 0 0 .6.6 1 .8" fill="#b2dce5"/><path d="m17.3 27.3c-.1 0 1.5.1 3 .1 0 0 .1-.3.2-.5 0 0 0 .5.1.6 0 0-.8.3-1.5.3 0 0 .8-.1 1.1-.3 0 0-1.5.1-2.9-.2" fill="#545352"/></svg>