<svg enable-background="new 0 0 88.2 100" viewBox="0 0 88.2 100" xmlns="http://www.w3.org/2000/svg"><path d="m8 90-8-90h88.2l-8 90-36.2 10z" fill="#e44d26"/><path d="m44.1 92.3 29.2-8.1 6.9-76.9h-36z" fill="#f16529"/><path d="m44.1 40.7h-14.6l-1-11.3h15.6v-11h-27.7l.3 3 2.7 30.4h24.7zm0 28.7-12.3-3.3-.8-8.8h-11.1l1.5 17.3 22.6 6.3h.1z" fill="#ebebeb"/><path d="m44 40.7v11h13.6l-1.3 14.3-12.3 3.4v11.5l22.6-6.3.2-1.9 2.6-29.1.3-3h-3-22.7zm0-22.3v11h26.7l.2-2.5.5-5.6.3-3h-27.7z" fill="#fff"/></svg>