<svg enable-background="new 0 0 100 100" viewBox="0 0 100 100" xmlns="http://www.w3.org/2000/svg"><g fill="#478aff"><path d="m50 27.2c-12.6 0-22.8 10.2-22.8 22.8s10.2 22.8 22.8 22.8 22.8-10.2 22.8-22.8-10.2-22.8-22.8-22.8z"/><circle cx="82.7" cy="18.9" r="10.4"/><path d="m95.5 29.3-.4-1-.7.8c-1.7 1.9-3.9 3.4-6.3 4.3l-.7.2.3.7c8.7 20.8-1.2 44.8-22 53.4-20.8 8.7-44.8-1.2-53.4-22-8.7-20.8 1.2-44.8 22-53.4 10.7-4.4 22.7-4.1 33.2.9l.6.3.3-.7c1-2.4 2.6-4.4 4.6-6l.8-.7-.9-.5c-7.1-3.7-14.9-5.6-22.9-5.6-27.6 0-50 22.4-50 50s22.4 50 50 50 50-22.4 50-50c0-7.2-1.5-14.2-4.5-20.7z"/></g></svg>