<svg enable-background="new 0 0 100 100" viewBox="0 0 100 100" xmlns="http://www.w3.org/2000/svg"><g clip-rule="evenodd" fill-rule="evenodd"><path d="m0 0h100v100h-100z" fill="#fff"/><path d="m53 47.4c-7 .3-14.6-1-21-4.2l1.3-2.1c6.2 2.9 13.3 3.9 19.7 3.6 0 .2.3-4.3.7-6.7h-9.5c.9-9.9 3.9-18.8 8.5-26.3h-28.6v43.4h30c-.7-2.6-1.1-7.8-1.1-7.7z" fill="#d0e9fb"/><path d="m55.9 44.5c5.2-.5 9.8-1.9 12.5-3.6l1.6 2.1c-3.8 2.2-8.8 3.7-14.2 4.2.1 2.7.5 5.2 1.2 7.8h20.5v-43.3h-21.7c-4.6 7.1-7.3 15-8.3 23.4h9.8c-.8 3.2-1.4 6.3-1.4 9.4zm-18.8-26.3h2.8v6.4h-2.8z" fill="#00acec"/><path d="m60.2 18.2h2.8v6.4h-2.8z"/><path d="m55.9 44.5c5.2-.5 9.8-1.9 12.5-3.6l1.6 2.1c-3.8 2.2-8.8 3.7-14.2 4.2.2 4.8 1.4 9.6 3.8 14.2l-2.4 1.3c-4.3-6.8-5.1-16-3.6-24.8h-9.5c1.2-13.5 6.4-25 14-34l2.1 1.8c-7.4 8.6-11.4 18.6-12.7 29.3h9.8c-.8 3.3-1.4 6.4-1.4 9.5z"/><path d="m53 44.7v2.7c-7 .3-14.6-1-21-4.2l1.3-2.1c6.2 2.9 13.3 3.9 19.7 3.6z" fill="#00acec"/><path d="m8.2 69.6c-1.3.1-1.9.1-2.7.1-.5 0-1 0-1.6 0h-1c-.5 0-.7.2-.7.6s.2.6.8.7l1 .1c1.6.1 1.7.3 1.7 1.6v1.1l-.9 15.5c-.2 3.1-.2 3.4-.5 3.7-.1.2-.5.5-1.2.5l-.6.1c-.9.2-1 .3-1 .8 0 .4.2.6.6.6h.2.5c.7 0 1.7-.1 2.5-.1s2.4 0 2.8.1h.6.2c.4 0 .7-.3.7-.7 0-.5-.2-.6-.8-.7l-.7-.1c-1.7-.2-1.9-.5-1.9-2.3 0-.6 0-1.4 0-2l.5-15 6.5 19.7c.2.5.3.6.5.6.3 0 .3-.1.5-.7l6.7-19.6.1 15.1v1.7c0 2-.2 2.3-1.4 2.5l-.6.1c-.6.1-.9.3-.9.8 0 .4.2.6.7.6h.2l.5-.1c.6 0 2.3-.1 3.1-.1.7 0 1.2 0 1.8.1h1.2.5c.5 0 .7-.2.7-.6s-.2-.6-1-.7l-.6-.1c-1-.1-1.3-.4-1.4-1s-.1-1.4-.1-4.1l-.1-13.2v-1.9c0-1.8.1-2 1.5-2.1l.9-.1c.6-.1.8-.3.8-.7s-.1-.5-.7-.6h-.1-.5c-.7 0-1.2 0-1.9 0s-1.3 0-2.5-.1l-6.7 19.5zm49.8 6v-2.6h-.5l-.6 2.2-.8-2.2h-.5v2.6h.3v-1.5-.6l.7 2.1h.4l.7-2.2v2.2zm-24.6 17.2c.7-.3 1.5-.9 2.1-1.5.4-.5.5-.9.5-1.6l.1-4.1c-1.3.6-2 1-2.6 1.5-.2.1-.4.3-.6.5-1.4 1.1-2.1 2.4-2.1 3.6s.6 2 1.6 2c.3-.1.6-.2 1-.4zm0-7.3c.8-.5 1.7-.9 2.6-1.3v-3.3c0-2.2-.5-3.2-1.7-3.2-.3 0-.6 0-.9.1-1.2.5-2.1 1.7-2.5 3.6l-.1.7c-.2.8-.4 1-1 1h-.6c-.5 0-.8-.3-.8-.7 0-.8.8-2.6 1.6-3.7.9-1.1 2.1-1.9 3.4-2.2.5-.1 1-.2 1.6-.2 1.4 0 2.1.2 2.6.7.9.7 1.1 1.4 1.1 3.6v.3l-.1 8.3c0 2.7 0 2.7.1 3.1 0 .4.3.7.7.8.7.1 1-.2 1.2-.7.2-.6 1-.6.9 0 0 .7-.2 1.2-.8 1.9-.7.8-1.7 1-2.7 1-1.4 0-2-.9-2-2.7-.7.9-1.6 1.6-2.6 2.1-.9.4-1.8.7-2.7.7-1.8 0-3-1.3-3-3.2.1-2.3 2.1-4.7 5.7-6.7zm19.9-12.2h.9v2.3h.3v-2.3h.9v-.3h-2.1zm.7 18.8c-.8 1.1-2 2.1-3.9 2.1-3.7-.1-5.2-4.2-5.2-8.7 0-4.4 2-7.7 4.6-7.8.9 0 1.6.3 2.2.9.6.5 1 1.3 1.3 1.9.5 1.3 1.7 2.3 1.5-1.7-.1-1.5-1.9-2.5-3.9-2.5-5.1.1-8.6 4.1-8.6 10.3 0 5.4 2.7 9 6.7 9 1.5 0 3.4-.1 4.7-1.1 1-.7 1.3-1.1 1.5-1.9.2-1-.6-.9-.9-.5z"/><path d="m72.5 68.7c-6.5.1-11.1 5.7-11.1 13.6 0 8.1 4.5 13.7 10.9 13.7h.2c3.3 0 5.8-1.4 8-4.2 2.1-2.6 3-5.6 3-9.6 0-3.7-.8-6.6-2.3-8.9-2-3-5-4.6-8.5-4.6zm0 25.9c-2.4 0-4-.9-5.5-3.2-1.6-2.4-2.4-5.2-2.4-9.1 0-7.2 3.2-12.1 7.9-12.3h.2c2.1 0 3.9 1 5.3 2.9 1.6 2.2 2.4 5.2 2.4 9.3 0 3.7-.6 6.5-2.1 8.8-1.6 2.5-3.3 3.6-5.8 3.6zm24.7-24.4c-1.4-.9-2.7-1.3-4.6-1.3-4.1 0-7.2 3.1-7.2 7.3 0 2.9 1.3 4.7 4.6 6.4l2.1 1c2.6 1.3 3.7 2.8 3.7 5.2 0 3.2-2 5.5-4.6 5.5-1.4 0-2.6-.5-3.4-1.6-.7-.9-1.2-2.2-1.5-3.4l-.1-.9c-.1-.8-.3-1-.7-1s-.6.4-.6 1.1l.1 5.7c1.8 1 3.6 1.6 5.7 1.6 2.7 0 4.7-.9 6.1-2.8 1.1-1.5 1.7-3.3 1.7-5.2 0-3.4-1.3-5.4-4.4-7l-1.4-.8c-2.6-1.3-3.1-1.6-3.7-2.4-.6-.7-1-1.7-1-2.9 0-2.6 1.6-4.4 3.8-4.4 2.1 0 3.8 1.6 4.1 4l.1.6c0 .5.2.7.6.7.5 0 .5 0 .6-.8v-.1z" fill="#00acec"/></g></svg>