<svg enable-background="new 0 0 73.5 100" viewBox="0 0 73.5 100" xmlns="http://www.w3.org/2000/svg"><path d="m11.8 0h-9.2c-1.4 0-2.6 1.2-2.6 2.6v15.4c0 1.4 1.2 2.6 2.6 2.6h9.1v76.8c0 1.4 1.2 2.6 2.6 2.6h18.3c1.4 0 2.6-1.2 2.6-2.6v-94.8c0-1.4-1.2-2.6-2.6-2.6z" fill="#3498db"/><path d="m50 0h-9.1c-1.4 0-2.6 1.2-2.6 2.6v15.4c0 1.4 1.2 2.6 2.6 2.6h9.1v18c0 1.4 1.2 2.6 2.6 2.6h18.3c1.4 0 2.6-1.2 2.6-2.6v-36c0-1.4-1.2-2.6-2.6-2.6z" fill="#f39c12"/><path d="m50 37.7 23.5-11.8-23.5 5.3z" opacity=".4"/><path d="m35.3 66.4-23.5 11.8 23.5-5.3z" opacity=".4"/><path d="m73.5 25.9-61.8 26v26.3l60.2-25.3c1-.4 1.6-1.4 1.6-2.4z" fill="#e74c3c"/></svg>