<svg enable-background="new 0 0 110.5 100" viewBox="0 0 110.5 100" xmlns="http://www.w3.org/2000/svg"><path d="m24.1 3.3 31.2-3.3 31.1 3.3 24.1 32.4-55.2 64.3-55.3-64.3z" fill="#fdb300"/><g transform="translate(0 126.881084)"><path d="m22.4-91.2 32.9 64.3-55.3-64.3z" fill="#ea6c00"/><path d="m88.1-91.2-32.8 64.3 55.2-64.3z" fill="#ea6c00"/><path d="m22.4-91.2h65.7l-32.8 64.3z" fill="#fdad00"/></g><path d="m55.3 0-31.2 3.3-1.7 32.4z" fill="#fdd231"/><path d="m55.3 0 31.1 3.3 1.7 32.4z" fill="#fdd231"/><path d="m110.5 35.7-24.1-32.4 1.7 32.4z" fill="#fdad00"/><path d="m0 35.7 24.1-32.4-1.7 32.4z" fill="#fdad00"/><path d="m55.3 0-32.9 35.7h65.7z" fill="#feeeb7"/></svg>