<svg version="1.1" id="Ebene_1" xmlns="http://www.w3.org/2000/svg" xmlns:xlink="http://www.w3.org/1999/xlink" x="0" y="0" viewBox="0 0 73 100" xml:space="preserve" enable-background="new 0 0 73 100"><style type="text/css">.st0{fill:#00caf4}.st1,.st2,.st3,.st4{opacity:.6;fill:url(#SVGID_1_);enable-background:new}.st2,.st3,.st4{opacity:.2;fill:#fff}.st3,.st4{opacity:.35}.st4{opacity:.4;fill:#004972}.st5{fill:#002d4f}.st6{fill:url(#SVGID_2_)}.st7{fill:url(#SVGID_3_)}.st8{opacity:.3;fill:#004972;enable-background:new}.st9{fill:#ffc600}.st10{fill:url(#SVGID_4_)}.st11{fill:url(#SVGID_5_)}.st12{fill:url(#SVGID_6_)}.st13{opacity:.4;fill:#b47d4f;enable-background:new}.st14{fill:#005a82}.st15{fill:url(#SVGID_7_)}.st16{fill:#db9927}.st17,.st18,.st19{opacity:.35;fill:#002d4f;enable-background:new}.st18,.st19{opacity:.2;fill:#004972}.st19{opacity:.4;fill:#002d4f}.st20{fill:url(#SVGID_8_)}.st21{opacity:.4;fill:url(#SVGID_9_);enable-background:new}.st22{fill:none}.st23{opacity:.42;fill:#002d4f;enable-background:new}.st24{fill:#cd7f1f}.st25,.st26,.st27{opacity:.4;fill:#cd7f1f;enable-background:new}.st26,.st27{fill:#ffe700}.st27{fill:#ff0}.st28{fill:url(#SVGID_10_)}.st29{fill:#fff203}</style><path class="st0" d="M18.8,97.1v2.5c0,0.2,0.2,0.4,0.4,0.4h34.3c0.2,0,0.4-0.2,0.4-0.4v-2.5H18.8z"/><rect x="15.4" y="12.8" class="st0" width="42.1" height="16.9"/><linearGradient id="SVGID_1_" gradientUnits="userSpaceOnUse" x1="15.425" y1="79.745" x2="57.571" y2="79.745" gradientTransform="matrix(1 0 0 -1 0 101)"><stop offset=".408" stop-color="#FFFFFF" stop-opacity="0"/><stop offset=".999" stop-color="#FFFFFF"/></linearGradient><polygon class="st1" points="15.4,12.8 57.6,12.8 57.6,29.7 15.4,29.7"/><polygon class="st2" points="51.5,28.3 57.6,28.3 57.6,22.2"/><polygon class="st3" points="40.1,28.3 55.6,12.8 33.7,12.8 18.2,28.3"/><rect x="15.4" y="12.8" class="st4" width="42.1" height="1.7"/><polygon class="st2" points="26.3,12.8 15.4,12.8 15.4,23.7"/><rect x="15.4" y="28.3" class="st5" width="42.1" height="1.5"/><rect x="44.6" y="13.4" class="st5" width="1.6" height="14.9"/><rect x="26.7" y="13.4" class="st5" width="1.6" height="14.9"/><linearGradient id="SVGID_2_" gradientUnits="userSpaceOnUse" x1="27.368" y1="72.727" x2="27.368" y2="87.599" gradientTransform="matrix(1 0 0 -1 0 101)"><stop offset=".096" stop-color="#00CAF4" stop-opacity="0"/><stop offset=".568" stop-color="#00CAF4" stop-opacity="0.2807"/><stop offset=".6" stop-color="#00CAF4" stop-opacity="0.3"/><stop offset=".797" stop-color="#00CAF4" stop-opacity="0.3"/><stop offset="1" stop-color="#00CAF4" stop-opacity="0.1"/></linearGradient><rect x="26.7" y="13.4" class="st6" width="1.3" height="14.9"/><linearGradient id="SVGID_3_" gradientUnits="userSpaceOnUse" x1="-13969.024" y1="72.727" x2="-13969.024" y2="87.599" gradientTransform="matrix(-1 0 0 -1 -13923.3965 101)"><stop offset=".096" stop-color="#00CAF4" stop-opacity="0"/><stop offset=".568" stop-color="#00CAF4" stop-opacity="0.2807"/><stop offset=".6" stop-color="#00CAF4" stop-opacity="0.3"/><stop offset=".797" stop-color="#00CAF4" stop-opacity="0.3"/><stop offset="1" stop-color="#00CAF4" stop-opacity="0.1"/></linearGradient><rect x="45" y="13.4" class="st7" width="1.3" height="14.9"/><rect x="28.4" y="13.4" class="st8" width=".4" height="14.9"/><rect x="44.2" y="13.4" class="st8" width=".4" height="14.9"/><path class="st9" d="M59.6,33.7L59,30.1c0-0.2-0.2-0.3-0.4-0.3H14.4c-0.2,0-0.4,0.1-0.4,0.3l-0.6,3.5H59.6z"/><path class="st5" d="M67.8,42.2L66.3,34c0-0.2-0.2-0.3-0.4-0.3H7.1c-0.2,0-0.4,0.1-0.4,0.3l-1.5,8.2H67.8z"/><linearGradient id="SVGID_4_" gradientUnits="userSpaceOnUse" x1="5.209" y1="63.092" x2="67.787" y2="63.092" gradientTransform="matrix(1 0 0 -1 0 101)"><stop offset=".096" stop-color="#00CAF4" stop-opacity="0"/><stop offset=".568" stop-color="#00CAF4" stop-opacity="0.2807"/><stop offset=".6" stop-color="#00CAF4" stop-opacity="0.3"/><stop offset=".797" stop-color="#00CAF4" stop-opacity="0.3"/><stop offset="1" stop-color="#00CAF4" stop-opacity="0.1"/></linearGradient><path class="st10" d="M67.8,42.2L66.3,34c0-0.2-0.2-0.3-0.4-0.3H7.1c-0.2,0-0.4,0.1-0.4,0.3l-1.5,8.2H67.8z"/><linearGradient id="SVGID_5_" gradientUnits="userSpaceOnUse" x1="36.478" y1="33.011" x2="36.478" y2="3.929" gradientTransform="matrix(1 0 0 -1 0 101)"><stop offset="0" stop-color="#005F8E"/><stop offset=".724" stop-color="#004972"/><stop offset=".74" stop-color="#004972"/></linearGradient><path class="st11" d="M16.3,68v28.1c0,0.5,0.4,0.9,0.9,0.9h38.4c0.5,0,0.9-0.4,0.9-0.9V68H16.3z"/><path class="st5" d="M7.1,33.7c-0.2,0-0.4,0.1-0.4,0.3l0,0.1h59.7l0-0.1c0-0.2-0.2-0.3-0.4-0.3H7.1z"/><g><path class="st9" d="M8,3.2h57l-0.8-2.9C64.2,0.1,64,0,63.8,0H9.1C8.9,0,8.7,0.1,8.7,0.3L8,3.2z"/><linearGradient id="SVGID_6_" gradientUnits="userSpaceOnUse" x1="8.016" y1="99.381" x2="65.007" y2="99.381" gradientTransform="matrix(1 0 0 -1 0 101)"><stop offset=".204" stop-color="#FFD813" stop-opacity="0"/><stop offset=".781" stop-color="#FFD813"/></linearGradient><path class="st12" d="M8,3.2h57l-0.8-2.9C64.2,0.1,64,0,63.8,0H9.1C8.9,0,8.7,0.1,8.7,0.3L8,3.2z"/><polygon class="st13" points="8,3.2 65,3.2 64.8,2.4 8.2,2.4"/></g><path class="st5" d="M5.7,13.4h61.6c0.1,0,0.3-0.1,0.3-0.2l1.5-9.9H3.9l1.5,9.9C5.4,13.3,5.5,13.4,5.7,13.4z"/><polygon class="st14" points="4,3.8 69,3.8 69.1,3.2 3.9,3.2"/><linearGradient id="SVGID_7_" gradientUnits="userSpaceOnUse" x1="13.374" y1="69.273" x2="59.622" y2="69.273" gradientTransform="matrix(1 0 0 -1 0 101)"><stop offset=".204" stop-color="#FFD813" stop-opacity="0"/><stop offset=".781" stop-color="#FFD813"/></linearGradient><path class="st15" d="M59.6,33.7L59,30.1c0-0.2-0.2-0.3-0.4-0.3H14.4c-0.2,0-0.4,0.1-0.4,0.3l-0.6,3.5H59.6z"/><polygon class="st16" points="59.6,33.7 59.4,32.5 13.6,32.5 13.4,33.7"/><polygon class="st17" points="67.8,42.2 67.4,40.2 5.6,40.2 5.2,42.2"/><rect x="18.8" y="97.1" class="st18" width="35.1" height=".6"/><path class="st19" d="M26.6,68H16.3v28.1c0,0.5,0.4,0.9,0.9,0.9h9.3L26.6,68L26.6,68z"/><linearGradient id="SVGID_8_" gradientUnits="userSpaceOnUse" x1="51.511" y1="33.011" x2="51.511" y2="3.915" gradientTransform="matrix(1 0 0 -1 0 101)"><stop offset="0" stop-color="#008DC4"/><stop offset=".541" stop-color="#0072A7"/></linearGradient><path class="st20" d="M56.6,96.1V68H46.4v29.1h9.3C56.2,97.1,56.6,96.7,56.6,96.1z"/><path class="st9" d="M72.9,49.1l-1.6-6.4c-0.1-0.4-0.4-0.6-0.8-0.6H2.4c-0.4,0-0.7,0.2-0.8,0.6L0,49.1c0,0.1,0,0.2,0.1,0.3l12,18.2	c0.1,0.2,0.4,0.3,0.6,0.3h47.7c0.2,0,0.5-0.1,0.6-0.3l12-18.2C72.9,49.3,73,49.2,72.9,49.1z"/><linearGradient id="SVGID_9_" gradientUnits="userSpaceOnUse" x1="21.563" y1="27.764" x2="47.329" y2="72.392" gradientTransform="matrix(1 0 0 -1 0 101)"><stop offset=".204" stop-color="#FFD813" stop-opacity="0"/><stop offset=".781" stop-color="#FFD813"/></linearGradient><path class="st21" d="M72.9,49.1l-1.6-6.4c-0.1-0.4-0.4-0.6-0.8-0.6H2.4c-0.4,0-0.7,0.2-0.8,0.6L0,49.1c0,0.1,0,0.2,0.1,0.3l12,18.2	c0.1,0.2,0.4,0.3,0.6,0.3h47.7c0.2,0,0.5-0.1,0.6-0.3l12-18.2C72.9,49.3,73,49.2,72.9,49.1z"/><path class="st22" d="M72.9,49.1l-1.6-6.4c-0.1-0.4-0.4-0.6-0.8-0.6H2.4c-0.4,0-0.7,0.2-0.8,0.6L0,49.1c0,0.1,0,0.2,0.1,0.3l12,18.2	c0.1,0.2,0.4,0.3,0.6,0.3h47.7c0.2,0,0.5-0.1,0.6-0.3l12-18.2C72.9,49.3,73,49.2,72.9,49.1z"/><path class="st16" d="M0,49.3c0,0.1,0,0.1,0.1,0.1l12,18.2c0.1,0.2,0.4,0.3,0.6,0.3h47.7c0.2,0,0.5-0.1,0.6-0.3l12-18.2	c0,0,0.1-0.1,0.1-0.1H0z"/><rect x="16.3" y="68" class="st23" width="40.3" height="2.3"/><path class="st24" d="M26.1,67.6L14,49.3l0,0H0c0,0.1,0,0.1,0.1,0.1l12,18.2c0.1,0.2,0.4,0.3,0.6,0.3h14.1	C26.5,68,26.2,67.9,26.1,67.6z"/><path class="st25" d="M14.3,49.1l1.6-6.7c0-0.2,0.2-0.3,0.4-0.3H2.6c-0.4,0-0.7,0.2-0.8,0.6l-1.6,6.4l0,0H14.3z"/><path class="st26" d="M46.9,67.6l12.1-18.3l0,0h14c0,0.1,0,0.1-0.1,0.1l-12,18.2c-0.1,0.2-0.4,0.3-0.6,0.3H46.2	C46.5,68,46.7,67.9,46.9,67.6z"/><path class="st27" d="M58.9,49.1l-1.6-6.7c0-0.2-0.2-0.3-0.4-0.3h13.8c0.4,0,0.7,0.2,0.8,0.6l1.6,6.4l0,0H58.9z"/><polygon class="st27" points="0,49.3 73,49.3 72.8,48.6 0.2,48.6"/><linearGradient id="SVGID_10_" gradientUnits="userSpaceOnUse" x1="3.9" y1="92.964" x2="69.123" y2="92.964" gradientTransform="matrix(1 0 0 -1 0 101)"><stop offset=".096" stop-color="#00CAF4" stop-opacity="0"/><stop offset=".568" stop-color="#00CAF4" stop-opacity="0.2807"/><stop offset=".6" stop-color="#00CAF4" stop-opacity="0.3"/><stop offset=".797" stop-color="#00CAF4" stop-opacity="0.3"/><stop offset="1" stop-color="#00CAF4" stop-opacity="0.1"/></linearGradient><polygon class="st28" points="67.7,12.8 69.1,3.2 3.9,3.2 5.4,12.8"/><path class="st29" d="M14.4,29.8c-0.2,0-0.4,0.1-0.4,0.3l0,0.1h45l0-0.1c0-0.2-0.2-0.3-0.4-0.3H14.4z"/></svg>